<?xml version="1.0" encoding="utf-8"?>
<!-- Generator: Adobe Illustrator 27.5.0, SVG Export Plug-In . SVG Version: 6.00 Build 0)  -->
<svg version="1.1" xmlns="http://www.w3.org/2000/svg" xmlns:xlink="http://www.w3.org/1999/xlink" x="0px" y="0px"
	 viewBox="0 0 500 500" style="enable-background:new 0 0 500 500;" xml:space="preserve">
<g id="BACKGROUND">
	<path style="fill:#F4F4F4;" d="M398.999,298.949c-43.442,16.269-91.547-13.21-121.293-48.806c-5.5-6.582-13.454-9.793-24.947-4.768
		c-35.025,15.312-107.902,131.489-156.496,61.832c-42.309-60.646,94.69-73.125,60.854-131.709
		c-33.836-58.584-60.854-101.443,27.534-139.614c89.814-38.787,93.988,103.659,197.221,52.177
		c103.233-51.482,127.315,160.352,40.074,201.203C413.939,293.013,406.29,296.219,398.999,298.949z"/>
</g>
<g id="OBJECTS">
	<g>
		<path id="Shadow" style="fill:#DAE2E5;" d="M276.076,388.852c-87.994,0-159.327,14.231-159.327,31.786
			c0,3.682,3.14,7.218,8.912,10.507c-33.741,0.883-59.789,6.642-59.789,13.614c0,7.584,30.817,13.732,68.831,13.732
			c24.73,0,46.41-2.602,58.545-6.509c6.324-2.036,13-2.73,19.62-2.159c19.378,1.673,40.75,2.6,63.208,2.6
			c87.994,0,159.328-14.231,159.328-31.786C435.404,403.083,364.07,388.852,276.076,388.852z"/>
		<g id="Plant">
			<g>
				<path style="fill:#879460;" d="M307.071,58.986c0,0-0.232-2.656,0.092-6.226c0.59-6.491,3.022-16,12.042-18.042
					C322.371,34.981,316.304,53.183,307.071,58.986z"/>
				<path style="fill:#629322;" d="M308.39,54.765c0,0-9.233-17.938,0-27.698C315.249,24.43,304.961,37.619,308.39,54.765z"/>
				<path style="fill:#629322;" d="M339.253,80.617c0,0-7.386-15.827,5.54-34.028C348.749,45.005,351.915,64.526,339.253,80.617z"/>
				<path style="fill:#879460;" d="M339.253,80.617c0,0,8.705-21.103,17.41-18.993c8.705,2.11,12.134,13.717,12.134,13.717
					s-3.429-6.067-9.233-4.221C353.761,72.967,345.584,81.144,339.253,80.617z"/>
				<path style="fill:#879460;" d="M339.253,100.401c0,0-2.374-9.496,8.969-11.079C348.486,95.652,343.737,100.137,339.253,100.401z
					"/>
				<path style="fill:#879460;" d="M332.922,117.811c0,0-2.374-13.453-8.177-16.882c-5.803-3.429-17.146-0.791-17.674-3.957
					c0.264,3.429,9.76,18.201,16.882,18.993C331.076,116.756,332.922,117.811,332.922,117.811z"/>
				<path style="fill:#879460;" d="M302.323,74.813c0,0-7.914-7.914-14.772-7.914C286.232,69.801,289.661,79.825,302.323,74.813z"/>
				<path style="fill:#629322;" d="M289.661,83.255c0,0,4.484,2.638,12.662-8.441C303.642,75.341,294.937,73.231,289.661,83.255z"/>
				<path style="fill:#629322;" d="M306.016,139.441c0,0-5.012-21.631-15.3-25.851c-1.583,3.429,0.791,15.036,3.957,17.938
					C297.839,134.429,303.906,135.748,306.016,139.441z"/>
				<path style="fill:#879460;" d="M302.323,134.693c0,0-2.11-13.717,6.595-18.201c0.528,1.847-1.055,16.091-2.902,22.949
					L302.323,134.693z"/>
				<polygon style="fill:#B5BE6C;" points="302.587,62.152 302.059,51.072 308.655,51.072 308.918,60.305 				"/>
				<polygon style="fill:#B5BE6C;" points="304.961,91.168 300.74,60.833 309.973,60.041 314.193,89.322 				"/>
				<path style="fill:#B5BE6C;" d="M302.587,89.322l15.3-0.791l2.11,49.328l-8.705,1.583
					C311.292,139.441,304.433,104.621,302.587,89.322z"/>
				<polygon style="fill:#B5BE6C;" points="308.918,138.386 323.426,135.484 323.426,166.611 312.083,167.93 				"/>
				<polygon style="fill:#E0DE88;" points="311.292,169.777 311.292,167.93 324.481,166.611 325.302,248.342 316.831,252.078 				
					"/>
				<polygon style="fill:#C6BC5D;" points="333.977,98.818 333.977,81.672 339.046,79.034 339.046,99.345 				"/>
				<path style="fill:#C6BC5D;" d="M331.867,99.345h8.177l-2.374,32.182h-6.858C330.812,131.528,333.45,109.106,331.867,99.345z"/>
				<polygon style="fill:#C6BC5D;" points="330.284,130.472 338.462,131.528 337.143,154.741 329.757,154.741 				"/>
				<polygon style="fill:#B5BE6C;" points="328.174,154.741 338.462,154.741 335.296,191.671 327.119,191.671 				"/>
				<polygon style="fill:#B5BE6C;" points="324.725,190.881 336.615,191.671 333.45,227.282 325.302,227.282 				"/>
				<polygon style="fill:#B5BE6C;" points="323.69,252.078 324.745,225.7 335.296,224.644 331.339,248.385 				"/>
				<polygon style="fill:#C6BC5D;" points="304.169,140.496 314.457,143.662 314.457,168.721 306.016,168.721 				"/>
				<path style="fill:#B5BE6C;" d="M304.169,167.93c0,0,7.386-1.055,11.343,1.846c0,0-1.583,25.851,0.528,31.654
					c0.264,0-6.858,3.429-8.969,0C307.599,201.695,305.752,172.151,304.169,167.93z"/>
				<path style="fill:#C6BC5D;" d="M306.543,201.959c0,0,6.595-2.374,11.079-1.055c0.791,1.847,0,34.556,0,34.556
					s-6.067,1.055-8.441,0.791C308.654,235.987,306.543,201.959,306.543,201.959z"/>
				<path style="fill:#629322;" d="M314.721,203.805c0,0,2.11-7.122,6.595-6.858C322.898,198.002,323.162,203.278,314.721,203.805z"
					/>
				<path style="fill:#879460;" d="M322.634,181.383c0,0-11.87,10.03-7.386,20.447C315.249,202.087,321.052,199.848,322.634,181.383
					z"/>
				<polygon style="fill:#C6BC5D;" points="307.071,237.042 318.941,234.668 318.435,253.371 309.181,254.98 				"/>
			</g>
			<path style="fill:#45AFB9;" d="M298.102,395.315c0,0,34.82,2.374,52.758-3.429c2.11-3.165,8.441-145.315,8.441-145.315
				l-73.069,6.858L298.102,395.315z"/>
		</g>
		<g id="Chair">
			<g>
				<polygon style="fill:#532931;" points="209.997,443.852 203.918,443.815 230.123,332.37 242.192,335.208 				"/>
				<polygon style="fill:#532931;" points="236.904,417.209 230.824,417.172 257.029,305.728 269.098,308.566 				"/>
				<g>
					<g>
						<polygon style="fill:#532931;" points="322.898,445.962 328.978,445.925 302.773,334.481 290.704,337.319 						"/>
						<polygon style="fill:#532931;" points="337.67,419.319 343.75,419.282 317.545,307.838 305.476,310.676 						"/>
					</g>
				</g>
			</g>
			<path style="fill:#F4C87A;" d="M178.607,147.355c0,0-39.04,27.434-31.654,68.321c7.386,40.887,30.335,119.232,108.944,130.311
				c78.609,11.079,105.976-51.978,103.239-61.6C356.399,274.764,245.609,133.374,178.607,147.355z"/>
			<path style="fill:#F5E4C3;" d="M178.607,147.355c0,0-7.605,5.345-15.467,14.831c-6.515,16.978-9.627,36.703-1.943,55.336
				c19.257,46.69,68.132,108.131,156.991,98.382c14.352-1.575,25.467-5.395,34.023-10.692c5.689-9.569,7.782-17.815,6.925-20.826
				C356.399,274.764,245.609,133.374,178.607,147.355z"/>
		</g>
		<g id="Table">
			<g>
				<ellipse style="fill:#F4C87A;" cx="134.159" cy="442.01" rx="41.81" ry="11.206"/>
				<rect x="123.475" y="327.389" style="fill:#F4C87A;" width="21.367" height="117.478"/>
				<path style="fill:#EDAD58;" d="M123.475,355.675c3.516,0.133,7.129,0.204,10.815,0.204c3.595,0,7.118-0.067,10.551-0.194
					v-28.101c-3.433-0.127-6.957-0.194-10.551-0.194c-3.687,0-7.299,0.07-10.815,0.204V355.675z"/>
				<ellipse style="fill:#F4C87A;" cx="134.159" cy="331.083" rx="63.968" ry="14.245"/>
				<ellipse style="fill:#F5E4C3;" cx="134.159" cy="323.96" rx="53.307" ry="11.87"/>
			</g>
			<g>
				<path style="fill:#184B51;" d="M168.187,325.603c0,0.998-4.407,1.807-9.844,1.807s-9.844-0.809-9.844-1.807
					s4.408-1.807,9.844-1.807S168.187,324.605,168.187,325.603z"/>
				<rect x="148.238" y="322.243" style="fill:#184B51;" width="20.043" height="3.359"/>
				<ellipse style="fill:#45AFB9;" cx="158.26" cy="322.342" rx="9.928" ry="1.822"/>
				<polygon style="fill:#45AFB9;" points="173.463,286.598 143.056,286.598 148.352,322.243 168.281,322.243 				"/>
				<ellipse style="fill:#184B51;" cx="158.26" cy="286.655" rx="15.203" ry="2.79"/>
			</g>
			<g>
				<ellipse style="fill:#184B51;" cx="114.735" cy="321.343" rx="15.203" ry="3.713"/>
				<g>
					<rect x="106.461" y="269.884" style="fill:#45AFB9;" width="17.146" height="50.383"/>
					<path style="fill:#ABD1D6;" d="M123.607,269.752c0,1.675-3.838,3.034-8.573,3.034s-8.573-1.358-8.573-3.034
						c0-1.675,3.838-3.034,8.573-3.034S123.607,268.077,123.607,269.752z"/>
					<path style="fill:#532931;" d="M114.77,270.411L114.77,270.411c-0.364,0-0.659-0.295-0.659-0.659v-6.463h1.319v6.463
						C115.43,270.116,115.134,270.411,114.77,270.411z"/>
					<path style="fill:#532931;" d="M110.681,260.388c0-2.331,1.89-12.662,4.221-12.662c2.331,0,4.221,10.331,4.221,12.662
						s-1.89,4.221-4.221,4.221C112.571,264.608,110.681,262.719,110.681,260.388z"/>
					<path style="fill:#F4C87A;" d="M112.396,262.102c0-1.384,1.122-7.518,2.506-7.518c1.384,0,2.506,6.134,2.506,7.518
						s-1.122,2.506-2.506,2.506C113.518,264.608,112.396,263.486,112.396,262.102z"/>
					<path style="fill:#ABD1D6;" d="M108.251,271.607c0,0-1.526,6.718,0.057,7.774c1.583,1.055,0.791-2.11,0.791-3.957
						s2.374-3.693,2.374-3.693L108.251,271.607z"/>
					<path style="fill:#ABD1D6;" d="M110.681,275.687c0,0-0.264,5.276-1.055,7.386s1.583,2.374,1.846,0.791
						C111.737,282.282,110.418,278.853,110.681,275.687z"/>
					<path style="fill:#45AFB9;" d="M123.607,320.399c0,1.675-3.838,3.034-8.573,3.034s-8.573-1.358-8.573-3.034
						c0-1.675,3.838-3.034,8.573-3.034S123.607,318.724,123.607,320.399z"/>
				</g>
			</g>
		</g>
		<g id="Person">
			<g>
				<path style="fill:#532931;" d="M131.575,154.084c-0.538-0.058-0.634-0.898-0.241-1.269c0.393-0.371,0.993-0.389,1.533-0.378
					c7.034,0.147,27.461-26.68,33.21-22.624c5.749,4.056,29.25,17.984,28.389,24.967c-0.249,2.022-0.883,3.982-1.113,6.006
					c-0.491,4.332-31.822,30.113-32.544,34.413c-1.042,6.204-6.139,10.824-9.077,16.387c-2.403,4.549-3.35,9.854-2.669,14.954
					c-1.023-2.187-3.971-2.359-6.339-2.83c-4.621-0.919-8.451-4.036-12.06-7.064c-1.886-1.583-3.819-3.232-4.923-5.432
					c-1.743-3.473-1.105-7.648-0.018-11.379c0.847-2.908,1.94-5.744,3.266-8.468c0.78-1.602,1.657-3.227,1.766-5.006
					c0.092-1.507-0.378-2.984-0.825-4.426c-1.483-4.782-2.782-9.724-2.537-14.724c0.245-5.001,2.246-10.132,6.272-13.109
					L131.575,154.084z"/>
			</g>
			<g>
				<path style="fill:#184B51;" d="M167.132,201.563c0,0-2.374-17.938,18.465-37.722
					C186.388,164.897,182.432,191.539,167.132,201.563z"/>
				<path style="fill:#E0A58D;" d="M188.367,168.194c0,0-13.402-12.247-26.555-24.212l22.993-5.728c0,0-18.597-21.499-23.609-19.916
					c-9.932,0.382-18.08,1.993-23.854,3.558c-0.053-0.046-0.104-0.089-0.151-0.129c-0.443,0.443-5.101,0.639-9.348,3.362
					c-0.099,0.044-0.149,0.068-0.149,0.068l0.017,0.018c-3.289,2.154-6.302,5.848-6.875,12.38
					c-1.319,15.036,37.37,52.221,52.186,59.215C178.123,200.249,190.741,177.954,188.367,168.194z"/>
				<path style="fill:none;stroke:#DD8668;stroke-width:2.2432;stroke-linecap:round;stroke-miterlimit:10;" d="M135.082,128.89
					c0,0,17.707,4.18,26.791,15.147"/>
				<path style="fill:#45AFB9;" d="M185.465,163.973c0,0-1.846,24.796-18.465,37.721c0-0.527,9.496,7.914,25.587,11.079
					c16.091,3.165,21.762-12.53,17.278-20.18S185.465,163.973,185.465,163.973z"/>
			</g>
			<g>
				<path style="fill:#E0A58D;" d="M282.803,103.566c-2.915-8.111-5.891-11.593-9.191-12.321c-5.828-2.795-17.008-4.38-37.539,3.301
					c-7.835,1.95,0.039,25.903,0.039,25.903s7.954-3.372,17.059-7.76c-3.851,13.115-5.98,28.863-5.98,28.863
					s14.244,17.41,23.741,17.938C270.932,159.489,288.87,120.449,282.803,103.566z"/>
				<path style="fill:none;stroke:#DD8668;stroke-width:2.2432;stroke-linecap:round;stroke-miterlimit:10;" d="M255.105,105.676
					c0,0,5.276-9.76,9.496-13.189"/>
			</g>
			<path style="fill:#45AFB9;" d="M248.006,134.033c0,0,7.363,14.904,27.938,25.192c0.528,1.319-17.674,22.158-17.674,22.158
				s-20.443-4.88-23.081-12.794C232.551,160.676,248.006,134.033,248.006,134.033z"/>
			<g>
				<g>
					<path style="fill:#532931;" d="M231.235,163.933c2.236,0.056,4.529,0.104,6.643-0.629c2.114-0.733,4.043-2.424,4.4-4.633
						c0.156-0.965,0.008-1.961,0.179-2.924c0.744-4.167,6.69-5.468,8.042-9.48c1.435-4.261-3.121-9.03-1.266-13.125
						c1.289-2.847,5.145-3.877,6.32-6.773c1.395-3.436-1.766-7.205-1.223-10.873c0.322-2.174,1.935-4.246,1.329-6.359
						c-0.398-1.388-1.686-2.39-2.064-3.784c-0.275-1.016-0.028-2.098-0.129-3.146c-0.212-2.195-1.95-3.993-3.93-4.965
						c-1.98-0.973-4.205-1.287-6.367-1.722c-1.314-0.264-2.93-0.961-2.863-2.3c0.04-0.787,0.691-1.399,0.957-2.141
						c0.566-1.576-0.771-3.264-2.311-3.922c-1.54-0.657-3.277-0.664-4.882-1.139c-1.605-0.475-3.228-1.711-3.231-3.385
						c-0.002-1.072,0.656-2.013,1.17-2.953c2.971-5.437,1.18-12.719-3.372-16.922c-4.552-4.203-11.286-5.522-17.378-4.395
						s-11.595,4.454-16.275,8.515c-2.416,2.096-5.107,4.565-8.287,4.223L231.235,163.933"/>
				</g>
				<g>
					<path style="fill:#532931;" d="M247.035,114.493c-0.682-0.884-0.168-2.172,0.477-3.084c0.645-0.912,1.45-1.891,1.289-2.996
						c-0.135-0.923-0.917-1.607-1.703-2.11c-2.85-1.82-6.303-2.362-9.485-3.505c-3.182-1.143-6.41-3.276-7.144-6.577
						c-0.219-0.984-0.232-2.092-0.904-2.843c-0.378-0.422-0.914-0.664-1.448-0.854c-3.471-1.237-7.519-0.792-10.639-2.751
						c-0.921-0.578-1.73-1.352-2.735-1.767c-1.6-0.661-3.415-0.313-5.143-0.425c-4.784-0.311-12.162-6.655-12.132-11.449l4.3,1.176
						c0.858,1.204,3.145-0.326,4.571,0.065c1.737,0.476,2.171,2.285,3.913,1.825c2.031-0.536,4.704,0.038,5.308,2.05
						c0.202,0.675,0.149,1.452,0.569,2.018c0.228,0.307,0.57,0.51,0.917,0.672c3.949,1.845,8.986-0.693,12.841,1.342
						c1.454,0.767,2.518,2.087,3.697,3.232c1.901,1.846,4.186,3.296,6.667,4.229c0.588,0.221,1.266,0.493,1.445,1.095
						c0.117,0.396-0.026,0.814-0.071,1.224c-0.235,2.132,2.1,3.598,4.168,4.167c2.068,0.568,4.493,0.992,5.565,2.849
						c1.317,2.282-0.271,5.292,0.624,7.769c0.151,0.417,0.374,0.852,0.261,1.281c-0.118,0.451-0.567,0.728-0.812,1.124
						c-0.66,1.069,0.357,2.387,1.375,3.123c1.018,0.736,2.264,1.612,2.165,2.865c-0.096,1.22-1.399,1.893-2.341,2.673
						c-2.552,2.111,1.684,8.049,1.567,11.359c-1.37-0.972-6.371-5.009-6.44-6.688c-0.069-1.679,0.138-3.401-0.336-5.013
						c-0.307-1.043-0.899-2.087-0.662-3.147c0.118-0.529,0.437-0.999,0.549-1.53c0.112-0.531-0.099-1.212-0.632-1.318"/>
				</g>
			</g>
			<path style="fill:#E0A58D;" d="M406.75,227.696c0.876-4.999-1.191-9.039-7.354-10.965c-21.103-6.595-99.184,24.268-99.184,24.268
				c-27.961,19.257-13.717,32.446-13.717,32.446s33.016,0.526,60.788-4.581c3.801,0.668,6.741,1.152,6.741,1.152
				s15.267-4.357,30.096-15.344C396.146,246.452,405.328,235.811,406.75,227.696L406.75,227.696L406.75,227.696z"/>
			<path style="fill:#184B51;" d="M341.148,226.624c-21.85,6.831-40.936,14.375-40.936,14.375
				c-27.961,19.257-13.717,32.446-13.717,32.446s18.327,0.292,39.158-1.671C325.545,261.313,327.364,241.193,341.148,226.624z"/>
			<g>
				<path style="fill:#E0A58D;" d="M222.395,277.402c0,0,9.496,33.237,45.371,38.513c35.875,5.276,71.75-5.276,71.75-5.276
					s50.911-7.386,35.348-35.348c-15.563-27.962-132.685-6.331-132.685-6.331L222.395,277.402z"/>
				<path style="fill:#184B51;" d="M302.817,261.633c-31.275,1.905-60.637,7.328-60.637,7.328l-19.784,8.441
					c0,0,9.496,33.237,45.371,38.513c10.026,1.474,20.051,1.712,29.294,1.29C294.653,305.425,289.189,271.779,302.817,261.633z"/>
				
					<line style="fill:none;stroke:#507C89;stroke-width:2.2432;stroke-linecap:round;stroke-miterlimit:10;" x1="289.397" y1="261.838" x2="302.85" y2="261.575"/>
			</g>
			<path style="fill:#45AFB9;" d="M234.925,166.743c0,0,41.019,18.333,43.921,30.995c2.902,12.662-2.902,17.938-2.902,17.938
				l32.314,22.818c0,0-18.729,47.482-88.369,44.316c-0.264-7.65-10.156-37.59-10.156-37.59s-20.048-31.391-19.256-40.096
				C191.268,196.419,190.081,170.436,234.925,166.743z"/>
			<path style="fill:#184B51;" d="M210.789,175.316c0,0-7.386,4.748-6.595,8.705c0.791,3.957,14.245,24.268,32.71,15.036
				c18.465-9.233,3.693-24.532,0-27.17C233.211,169.249,213.954,175.052,210.789,175.316z"/>
			<path style="fill:#E0A58D;" d="M208.415,166.611l-1.319,15.827c0,0,12.398,19.256,28.753,13.189
				c16.355-6.067-4.748-21.103-4.748-21.103l0.791-12.926L208.415,166.611z"/>
			<path style="fill:#DD8668;" d="M231.892,161.599l-23.477,5.012l-0.664,7.968c2.296,0.658,4.714,1.095,7.259,1.264
				c6.524,0.435,11.858-0.836,16.205-3.177L231.892,161.599z"/>
			<path style="fill:#E0A58D;" d="M169.638,123.086c0,0,12.134,43.261,43.789,45.371c31.654,2.11,35.348-35.875,33.765-41.942
				s-0.66-13.585-11.475-19.125c-1.893-0.969,0.923-5.144-17.014-18.333c-17.938-13.189-17.674-10.815-23.477-10.024
				C189.422,79.825,148.535,84.046,169.638,123.086z"/>
			<path style="fill:#E0A58D;" d="M429.468,411.142c-2.638-3.693-8.705,2.374-8.705,2.374s-15.564,8.177-24.796,5.539
				c0,0-21.631-112.11-20.312-120.287c1.319-8.177,3.766-11.167,0.432-21.015c-3.334-9.848-38.417,18.377-38.417,18.377
				s-12.134,30.599,4.484,56.978s36.93,77.553,36.93,77.553l0.054-0.037c0.808,3.442,1.775,7.955,2.32,11.907
				c1.055,7.65,5.54,11.343,10.552,8.177c5.012-3.165,14.508-13.189,22.686-18.465c8.177-5.276,11.079-10.024,11.607-14.245
				C427.886,418.264,432.106,414.835,429.468,411.142z"/>
			<path style="fill:none;stroke:#507C89;stroke-width:2.2432;stroke-linecap:round;stroke-miterlimit:10;" d="M216.064,214.357
				c0,0-1.319,15.827,13.189,16.091"/>
			<path style="fill:#E0A58D;" d="M386.471,265.268c-2.365-1.819-5.983-0.377-8.002,0.694c-2.651-2.352-7.857-2.691-14.948-0.957
				c-6.16,1.506-17.482-2.707-17.482-2.707l-1.134-0.144c0,0-13.302-1.897-15.94,5.753c-2.638,7.65,0.264,15.036,9.496,11.871
				c9.232-3.165,18.201,5.276,26.115,6.067c1.974,0.197,3.817,0.05,5.5-0.414l0,0c-0.567,2.488,6.634,5.162,8.744,4.37
				c0.721-0.271,0.98-1.158,0.89-2.258c1.549,0.104,2.925-0.383,3.33-1.699c0.406-1.32,0.146-2.601-0.491-3.708
				c1.241-0.066,2.325-0.597,2.865-1.832c0.951-2.173,0.641-4.413-0.428-6.001C389.239,272.604,389.035,267.24,386.471,265.268z"/>
			<path style="fill:#E0A58D;" d="M418.494,414.613c0,0,3.853-5.054,7.018-7.428c4.221,0.264,3.693,5.012,1.847,7.386
				C425.511,416.945,418.494,414.613,418.494,414.613z"/>
			<path style="fill:#E0A58D;" d="M180.189,141.551c0,0-7.914-9.233-11.607-3.693c-3.693,5.54,4.221,20.575,11.607,20.575
				c7.386,0,6.055-4.59,6.055-4.59L180.189,141.551z"/>
			<path style="fill:none;stroke:#507C89;stroke-width:2.2432;stroke-linecap:round;stroke-miterlimit:10;" d="M275.944,215.676
				c0,0-16.091,15.563-25.851,14.772"/>
			
				<line style="fill:none;stroke:#507C89;stroke-width:2.2432;stroke-linecap:round;stroke-miterlimit:10;" x1="259.55" y1="179.91" x2="242.192" y2="170.472"/>
			<g>
				<path style="fill:#532931;" d="M199.626,79.487c-0.145,1.937,1.553,3.442,2.511,5.132c1.443,2.544,1.129,5.972-0.754,8.21
					c-2.095,2.492-5.527,3.262-8.568,4.426c-3.04,1.163-6.245,3.425-6.306,6.68c-0.048,2.582,1.96,4.935,1.66,7.5
					c-0.355,3.034-3.597,4.702-6.357,6.011c-0.638,0.303-1.326,0.67-1.583,1.328c-0.542,1.39,1.155,2.561,2.566,3.046
					c2.942,1.011,6.048,1.793,8.542,3.652c2.495,1.859,4.236,5.192,3.146,8.107c-0.774,2.072-2.726,3.415-4.392,4.87
					c-1.666,1.455-3.239,3.493-2.822,5.666c0.358,1.868,2.052,3.134,3.619,4.213c2.533,1.744,5.066,3.487,7.598,5.231
					c1.726,1.188,3.576,2.546,4.108,4.573c0.611,2.326-0.81,4.802-2.789,6.168c-1.979,1.366-0.851,0.045-1.12-1.127
					c-0.153-0.666-0.712-1.154-1.268-1.551c-3.088-2.201-5.08-4.32-8.579-5.782c-3.499-1.462-6.992-4.046-7.606-7.788
					c-0.413-2.515-1.285-4.493-0.834-7.002c0.09-0.501,0.158-1.022,0.03-1.515c-0.281-1.074-1.383-1.65-2.482-1.808
					c-1.099-0.157-0.413-0.55-1.523-0.593c-4.354-0.167-7.674-3.836-10.245-7.354c-1.638-2.242-3.25-4.687-3.45-7.456
					c-0.283-3.922,2.447-7.582,5.879-9.501c1.977-1.106,4.223-1.779,5.955-3.239c2.087-1.759,3.162-4.447,3.757-7.111
					s0.789-5.413,1.521-8.043c0.276-0.992,0.635-1.978,1.239-2.812c2.786-3.848,9.222-2.891,12.492-6.338
					c1.006-1.06,1.601-2.437,2.445-3.629c0.845-1.192,2.113-2.268,3.574-2.21"/>
			</g>
			<path style="fill:#DD8668;" d="M178.708,142.721c0,0-5.472-6.384-8.026-2.554c-2.554,3.83,2.918,14.227,8.026,14.227
				c5.107,0,4.187-3.174,4.187-3.174L178.708,142.721z"/>
			<circle style="fill:#45AFB9;" cx="182.959" cy="155.664" r="2.374"/>
			<path style="fill:none;stroke:#507C89;stroke-width:2.2432;stroke-linecap:round;stroke-miterlimit:10;" d="M300.213,261.047
				c0,0,7.122-2.638,11.871-16.091"/>
			<path style="fill:none;stroke:#DD8668;stroke-width:2.2432;stroke-linecap:round;stroke-miterlimit:10;" d="M326.236,261.047
				c0,0,2.729-0.528,7.741-0.264"/>
			<path style="fill:none;stroke:#DD8668;stroke-width:2.2432;stroke-linecap:round;stroke-miterlimit:10;" d="M368.651,264.075
				c0,0-14.098-3.819-26.233-3.028"/>
			<path style="fill:none;stroke:#DD8668;stroke-width:2.2432;stroke-linecap:round;stroke-miterlimit:10;" d="M389.373,220.951
				c0,0-17.41-12.926-58.824,44.316c0.006,0.006,0.017,0.013,0.025,0.02c-0.693,0.716-1.249,1.578-1.608,2.618
				c-2.638,7.65,0.264,15.036,9.496,11.871c9.232-3.165,18.201,5.276,26.115,6.067c1.974,0.197,3.817,0.05,5.5-0.414l0,0
				c-0.567,2.488,6.634,5.162,8.744,4.37"/>
			<path style="fill:none;stroke:#DD8668;stroke-width:2.2432;stroke-linecap:round;stroke-miterlimit:10;" d="M356.698,234.668
				c0,0,2.603-10.024,11.835-13.453"/>
			<path style="fill:none;stroke:#DD8668;stroke-width:2.2432;stroke-linecap:round;stroke-miterlimit:10;" d="M378.557,271.599
				c0,0-0.104,0.695-0.351,1.782c-0.432,1.908-1.302,5.025-2.815,7.714"/>
			<path style="fill:none;stroke:#DD8668;stroke-width:2.2432;stroke-linecap:round;stroke-miterlimit:10;" d="M384.888,274.236
				c0,0-4.484,0.264-6.331-0.791"/>
			<path style="fill:none;stroke:#DD8668;stroke-width:2.2432;stroke-linecap:round;stroke-miterlimit:10;" d="M381.723,282.15
				c0,0-4.511-0.791-4.894-1.978"/>
			<path style="fill:none;stroke:#DD8668;stroke-width:2.2432;stroke-linecap:round;stroke-miterlimit:10;" d="M333.395,312.195
				c0,0,2.428-20.548,7.704-26.616"/>
			<g>
				<g>
					<path style="fill:#DD8668;" d="M394.253,310.287c0.509,0,0.51-0.791,0-0.791C393.744,309.496,393.743,310.287,394.253,310.287
						L394.253,310.287z"/>
				</g>
			</g>
			<g>
				<path style="fill:none;stroke:#BF774F;stroke-width:2.2432;stroke-linecap:round;stroke-miterlimit:10;" d="M196.808,119.13
					c0,0,3.429,4.221,7.386,2.638c3.957-1.583,0-7.65,0-7.65"/>
				<path style="fill:none;stroke:#BF774F;stroke-width:2.2432;stroke-linecap:round;stroke-miterlimit:10;" d="M221.34,109.897
					c0,0,1.055,3.957,5.276,2.902c4.221-1.055,2.11-6.858,2.11-6.858"/>
				<path style="fill:none;stroke:#BF774F;stroke-width:2.2432;stroke-linecap:round;stroke-miterlimit:10;" d="M216.064,109.369
					c0,0,1.319,4.484,9.496,8.705c2.11,3.429-1.055,7.386-1.055,7.386"/>
				<path style="fill:#560000;" d="M208.678,134.165c0,0,5.803,3.429,15.827-1.319c0.791,1.846,1.846,21.103-3.429,19.52
					C215.801,150.784,210.525,145.245,208.678,134.165z"/>
				<path style="fill:none;stroke:#532931;stroke-width:2.2432;stroke-linecap:round;stroke-miterlimit:10;" d="M190.477,110.161
					c0,0-0.528-8.177,7.122-5.539"/>
				<path style="fill:none;stroke:#532931;stroke-width:2.2432;stroke-linecap:round;stroke-miterlimit:10;" d="M214.218,98.027
					c0,0,1.414-6.13,8.752-3.197"/>
				<path style="fill:#AD3228;" d="M220.285,143.398c-4.215-2.035-6.987-1.025-8.627,0.291c2.493,4.896,5.956,7.639,9.419,8.678
					c2.241,0.672,3.339-2.416,3.801-6.333C223.566,145.122,222.014,144.233,220.285,143.398z"/>
				<path style="fill:#DD8668;" d="M218.268,153.29c0,0,3.336,2.242,5.447,1.451C225.825,153.949,219.943,162.654,218.268,153.29z"
					/>
				<path style="fill:#DD8668;" d="M200.105,127.966c0,0.729-0.59,1.319-1.319,1.319c-0.729,0-1.319-0.59-1.319-1.319
					c0-0.728,0.59-1.319,1.319-1.319C199.515,126.647,200.105,127.238,200.105,127.966z"/>
				<path style="fill:#DD8668;" d="M203.535,131.66c0,0.728-0.59,1.319-1.319,1.319c-0.728,0-1.319-0.59-1.319-1.319
					c0-0.729,0.59-1.319,1.319-1.319C202.944,130.34,203.535,130.931,203.535,131.66z"/>
				<circle style="fill:#DD8668;" cx="208.547" cy="126.384" r="1.319"/>
				<path style="fill:#DD8668;" d="M231.232,115.832c0,0.728-0.59,1.319-1.319,1.319c-0.728,0-1.319-0.591-1.319-1.319
					s0.59-1.319,1.319-1.319C230.642,114.513,231.232,115.104,231.232,115.832z"/>
				<path style="fill:#DD8668;" d="M238.091,118.206c0,0.728-0.591,1.319-1.319,1.319c-0.728,0-1.319-0.59-1.319-1.319
					s0.59-1.319,1.319-1.319C237.5,116.887,238.091,117.478,238.091,118.206z"/>
				<path style="fill:#DD8668;" d="M237.299,111.084c0,0.728-0.59,1.319-1.319,1.319c-0.729,0-1.319-0.59-1.319-1.319
					c0-0.729,0.59-1.319,1.319-1.319C236.709,109.765,237.299,110.356,237.299,111.084z"/>
				<path style="fill:#DD8668;" d="M217.252,117.679c0,0.729-0.59,1.319-1.319,1.319c-0.728,0-1.319-0.59-1.319-1.319
					c0-0.728,0.59-1.319,1.319-1.319C216.661,116.36,217.252,116.95,217.252,117.679z"/>
			</g>
			<g>
				<path style="fill:#532931;" d="M195.175,72.146c-1.933-1.706-5.19,0.125-7.626-0.719c-3.014-1.045-5.684-2.971-8.755-3.832
					c-2.139-0.6-4.391-0.659-6.613-0.62c-2.305,0.041-4.683,0.203-6.744,1.235c-1.938,0.971-3.45,2.652-4.552,4.519
					c-1.151,1.949-1.901,4.134-2.189,6.379c-0.285,2.225-0.188,4.686-1.593,6.436c-1.67,2.079-4.7,2.255-7.357,2.479
					c-2.495,0.21-5.068,0.649-7.13,2.068c-2.669,1.836-4.083,5.073-4.521,8.282c-0.48,3.519,0.054,7.094,0.284,10.63
					c0.036,0.559-0.062,1.126-0.324,1.621c-1.044,1.976-3.446,1.163-5.401,1.267c-3.098,0.163-5.579,3.245-5.538,6.347
					c0.041,3.102,1.32,3.693,4.142,4.983l10.647,2.474c10.115,2.35,20.682,1.856,30.533-1.428l2.74-0.913
					c0,0,7.65-24.268,11.607-29.28c3.957-5.012,10.815-11.079,10.815-11.079S206.204,81.877,195.175,72.146z"/>
			</g>
		</g>
	</g>
</g>
</svg>
