<svg xmlns="http://www.w3.org/2000/svg" xmlns:xlink="http://www.w3.org/1999/xlink" width="500" zoomAndPan="magnify" viewBox="0 0 375 374.999991" height="500" preserveAspectRatio="xMidYMid meet" version="1.0"><defs><g/><clipPath id="0275609735"><path d="M 164 53.449219 L 211 53.449219 L 211 128 L 164 128 Z M 164 53.449219 " clip-rule="nonzero"/></clipPath><clipPath id="4a18fd892c"><path d="M 51.828125 192 L 187 192 L 187 213 L 51.828125 213 Z M 51.828125 192 " clip-rule="nonzero"/></clipPath><clipPath id="3c3bf83bd6"><path d="M 188 192 L 323.328125 192 L 323.328125 213 L 188 213 Z M 188 192 " clip-rule="nonzero"/></clipPath></defs><path fill="#e7e0d1" d="M 182.539062 184.292969 C 182.539062 184.292969 96.679688 230.636719 79.847656 125.753906 C 79.847656 125.753906 87.65625 132.09375 104.730469 130.632812 C 121.804688 129.167969 169.609375 137.21875 182.539062 184.292969 Z M 182.539062 184.292969 " fill-opacity="1" fill-rule="nonzero"/><path fill="#e7e0d1" d="M 183.976562 172.160156 C 183.976562 172.160156 197.882812 113.984375 145.195312 87.277344 C 145.195312 87.277344 130.195312 82.152344 126.71875 76.664062 C 126.71875 76.664062 120.683594 113.617188 128.730469 127.523438 C 128.730469 127.523438 168.878906 132.347656 183.878906 172.777344 Z M 183.976562 172.160156 " fill-opacity="1" fill-rule="nonzero"/><path fill="#e7e0d1" d="M 192.710938 184.78125 C 192.710938 184.78125 278.570312 231.128906 295.402344 126.242188 C 295.402344 126.242188 287.597656 132.585938 270.519531 131.121094 C 253.445312 129.65625 205.640625 137.707031 192.710938 184.78125 Z M 192.710938 184.78125 " fill-opacity="1" fill-rule="nonzero"/><path fill="#e7e0d1" d="M 191.371094 172.777344 C 206.371094 132.347656 246.519531 127.523438 246.519531 127.523438 C 254.566406 113.617188 248.53125 76.664062 248.53125 76.664062 C 245.054688 82.15625 230.054688 87.277344 230.054688 87.277344 C 177.367188 113.984375 191.269531 172.160156 191.269531 172.160156 Z M 191.371094 172.777344 " fill-opacity="1" fill-rule="nonzero"/><g clip-path="url(#0275609735)"><path fill="#e7e0d1" d="M 164.628906 93.3125 C 164.628906 93.3125 182.570312 106.285156 187.316406 127.523438 C 187.316406 127.523438 194.449219 105.078125 210.363281 93.3125 C 210.363281 93.3125 200.363281 65.257812 186.828125 53.492188 C 186.828125 53.492188 171.09375 72.621094 164.628906 93.3125 Z M 164.628906 93.3125 " fill-opacity="1" fill-rule="nonzero"/></g><g clip-path="url(#4a18fd892c)"><path fill="#e7e0d1" d="M 51.832031 210.082031 C 51.832031 210.082031 74.03125 196.890625 111.402344 199.855469 C 148.777344 202.820312 172.476562 204.179688 186.394531 192.300781 C 186.394531 192.300781 170.101562 213.894531 141.65625 211.890625 C 113.207031 209.890625 96.570312 198.125 51.832031 210.082031 Z M 51.832031 210.082031 " fill-opacity="1" fill-rule="nonzero"/></g><g clip-path="url(#3c3bf83bd6)"><path fill="#e7e0d1" d="M 323.164062 210.082031 C 323.164062 210.082031 300.96875 196.890625 263.59375 199.855469 C 226.222656 202.820312 202.519531 204.179688 188.601562 192.300781 C 188.601562 192.300781 204.894531 213.894531 233.34375 211.890625 C 261.789062 209.890625 278.425781 198.125 323.164062 210.082031 Z M 323.164062 210.082031 " fill-opacity="1" fill-rule="nonzero"/></g><g fill="#e3ae5b" fill-opacity="1"><g transform="translate(7.842879, 266.740509)"><g><path d="M 69.90625 13.234375 C 64.644531 15.890625 59.3125 16.328125 53.90625 14.546875 C 48.164062 12.710938 43.222656 8.804688 39.078125 2.828125 C 36.859375 -0.359375 34.953125 -4.050781 33.359375 -8.25 L 31.046875 -14.40625 L 13.96875 -14.40625 L 10.140625 -5.28125 C 9.898438 -4.65625 9.78125 -4.148438 9.78125 -3.765625 C 9.78125 -3.378906 9.863281 -2.957031 10.03125 -2.5 C 10.195312 -2.039062 10.554688 -1.628906 11.109375 -1.265625 C 11.660156 -0.898438 12.273438 -0.71875 12.953125 -0.71875 L 13.53125 -0.71875 L 13.53125 0 L -1.953125 0 L -1.953125 -0.71875 L -1.296875 -0.71875 C -0.179688 -0.71875 0.914062 -1.039062 2 -1.6875 C 3.082031 -2.34375 3.984375 -3.320312 4.703125 -4.625 L 20.84375 -41.46875 C 18.957031 -45.707031 16.957031 -48.625 14.84375 -50.21875 C 13.050781 -51.570312 11.347656 -52.25 9.734375 -52.25 C 8.117188 -52.25 6.613281 -52.003906 5.21875 -51.515625 L 5.078125 -52.25 C 8.546875 -54.03125 11.875 -54.921875 15.0625 -54.921875 C 19.007812 -54.921875 22.550781 -53.378906 25.6875 -50.296875 C 28.78125 -47.253906 31.507812 -42.863281 33.875 -37.125 L 44.359375 -11.21875 C 48.316406 -1.425781 52.367188 5.300781 56.515625 8.96875 C 58.203125 10.46875 59.9375 11.503906 61.71875 12.078125 C 63.507812 12.660156 65.019531 12.953125 66.25 12.953125 C 67.476562 12.953125 68.671875 12.804688 69.828125 12.515625 Z M 15.203125 -17.515625 L 29.96875 -17.515625 L 24.890625 -30.890625 C 24.648438 -31.566406 24.3125 -32.492188 23.875 -33.671875 C 23.445312 -34.859375 23.160156 -35.691406 23.015625 -36.171875 Z M 15.203125 -17.515625 "/></g></g></g><g fill="#e3ae5b" fill-opacity="1"><g transform="translate(58.851043, 266.740509)"><g><path d="M 54.78125 -49.921875 L 54.125 -49.921875 C 53.019531 -49.921875 51.910156 -49.582031 50.796875 -48.90625 C 49.691406 -48.238281 48.773438 -47.226562 48.046875 -45.875 L 30.90625 -8.03125 C 28.6875 -3.257812 27.503906 -0.0976562 27.359375 1.453125 L 26.703125 1.453125 L 4.78125 -45.796875 C 4.0625 -47.148438 3.144531 -48.175781 2.03125 -48.875 C 0.925781 -49.570312 -0.207031 -49.921875 -1.375 -49.921875 L -1.953125 -49.921875 L -1.953125 -50.65625 L 21.0625 -50.65625 L 21.0625 -49.921875 L 20.484375 -49.921875 C 19.421875 -49.921875 18.632812 -49.59375 18.125 -48.9375 C 17.625 -48.289062 17.375 -47.675781 17.375 -47.09375 C 17.375 -46.519531 17.46875 -45.945312 17.65625 -45.375 L 29.96875 -15.484375 L 42.703125 -45.375 C 42.941406 -46 43.0625 -46.585938 43.0625 -47.140625 C 43.0625 -47.691406 42.804688 -48.289062 42.296875 -48.9375 C 41.796875 -49.59375 41.015625 -49.921875 39.953125 -49.921875 L 39.296875 -49.921875 L 39.296875 -50.65625 L 54.78125 -50.65625 Z M 54.78125 -49.921875 "/></g></g></g><g fill="#e3ae5b" fill-opacity="1"><g transform="translate(111.450951, 266.740509)"><g><path d="M 3.984375 -0.71875 C 5.234375 -0.71875 6.300781 -1.164062 7.1875 -2.0625 C 8.082031 -2.957031 8.554688 -4.03125 8.609375 -5.28125 L 8.609375 -45.4375 C 8.554688 -46.695312 8.082031 -47.757812 7.1875 -48.625 C 6.300781 -49.488281 5.234375 -49.921875 3.984375 -49.921875 L 3.046875 -49.921875 L 3.046875 -50.65625 L 25.03125 -50.65625 L 24.96875 -49.921875 L 24.09375 -49.921875 C 22.84375 -49.921875 21.757812 -49.488281 20.84375 -48.625 C 19.925781 -47.757812 19.46875 -46.695312 19.46875 -45.4375 L 19.46875 -5.28125 C 19.46875 -4.03125 19.925781 -2.957031 20.84375 -2.0625 C 21.757812 -1.164062 22.84375 -0.71875 24.09375 -0.71875 L 24.96875 -0.71875 L 25.03125 0 L 3.046875 0 L 3.046875 -0.71875 Z M 3.984375 -0.71875 "/></g></g></g><g fill="#e3ae5b" fill-opacity="1"><g transform="translate(139.378828, 266.740509)"><g><path d="M 59.125 -49.921875 C 57.914062 -49.921875 56.875 -49.5 56 -48.65625 C 55.132812 -47.8125 54.675781 -46.789062 54.625 -45.59375 L 54.625 -8.25 C 54.625 -5.019531 54.84375 -2.296875 55.28125 -0.078125 L 55.5 1.015625 L 54.84375 1.015625 L 18.3125 -33.796875 L 18.3125 -5.0625 C 18.3125 -3.851562 18.742188 -2.828125 19.609375 -1.984375 C 20.472656 -1.140625 21.507812 -0.71875 22.71875 -0.71875 L 24.09375 -0.71875 L 24.09375 0 L 2.171875 0 L 2.171875 -0.71875 L 3.46875 -0.71875 C 4.726562 -0.71875 5.789062 -1.140625 6.65625 -1.984375 C 7.519531 -2.828125 7.953125 -3.878906 7.953125 -5.140625 L 7.953125 -42.6875 C 7.953125 -45.875 7.738281 -48.53125 7.3125 -50.65625 L 7.15625 -51.734375 L 7.8125 -51.734375 L 44.359375 -16.9375 L 44.359375 -45.515625 C 44.304688 -46.765625 43.84375 -47.8125 42.96875 -48.65625 C 42.101562 -49.5 41.070312 -49.921875 39.875 -49.921875 L 38.5625 -49.921875 L 38.5625 -50.65625 L 60.5 -50.65625 L 60.5 -49.921875 Z M 59.125 -49.921875 "/></g></g></g><g fill="#e3ae5b" fill-opacity="1"><g transform="translate(201.963312, 266.740509)"><g><path d="M 59.125 -49.921875 C 57.914062 -49.921875 56.875 -49.5 56 -48.65625 C 55.132812 -47.8125 54.675781 -46.789062 54.625 -45.59375 L 54.625 -8.25 C 54.625 -5.019531 54.84375 -2.296875 55.28125 -0.078125 L 55.5 1.015625 L 54.84375 1.015625 L 18.3125 -33.796875 L 18.3125 -5.0625 C 18.3125 -3.851562 18.742188 -2.828125 19.609375 -1.984375 C 20.472656 -1.140625 21.507812 -0.71875 22.71875 -0.71875 L 24.09375 -0.71875 L 24.09375 0 L 2.171875 0 L 2.171875 -0.71875 L 3.46875 -0.71875 C 4.726562 -0.71875 5.789062 -1.140625 6.65625 -1.984375 C 7.519531 -2.828125 7.953125 -3.878906 7.953125 -5.140625 L 7.953125 -42.6875 C 7.953125 -45.875 7.738281 -48.53125 7.3125 -50.65625 L 7.15625 -51.734375 L 7.8125 -51.734375 L 44.359375 -16.9375 L 44.359375 -45.515625 C 44.304688 -46.765625 43.84375 -47.8125 42.96875 -48.65625 C 42.101562 -49.5 41.070312 -49.921875 39.875 -49.921875 L 38.5625 -49.921875 L 38.5625 -50.65625 L 60.5 -50.65625 L 60.5 -49.921875 Z M 59.125 -49.921875 "/></g></g></g><g fill="#e3ae5b" fill-opacity="1"><g transform="translate(264.547796, 266.740509)"><g><path d="M 53.1875 -49.921875 L 52.171875 -49.921875 C 50.722656 -49.921875 49.347656 -49.507812 48.046875 -48.6875 C 46.742188 -47.875 45.707031 -46.890625 44.9375 -45.734375 L 30.6875 -23.015625 L 30.6875 -5.28125 C 30.6875 -4.03125 31.144531 -2.957031 32.0625 -2.0625 C 32.976562 -1.164062 34.0625 -0.71875 35.3125 -0.71875 L 36.1875 -0.71875 L 36.25 0 L 14.265625 0 L 14.265625 -0.71875 L 15.203125 -0.71875 C 16.453125 -0.71875 17.523438 -1.148438 18.421875 -2.015625 C 19.316406 -2.890625 19.785156 -3.953125 19.828125 -5.203125 L 19.828125 -23.078125 L 6.015625 -45.796875 C 5.285156 -46.960938 4.257812 -47.941406 2.9375 -48.734375 C 1.613281 -49.523438 0.25 -49.921875 -1.15625 -49.921875 L -2.171875 -49.921875 L -2.171875 -50.65625 L 21.78125 -50.65625 L 21.78125 -49.921875 L 20.84375 -49.921875 C 19.78125 -49.921875 18.960938 -49.441406 18.390625 -48.484375 C 18.097656 -47.953125 17.953125 -47.429688 17.953125 -46.921875 C 17.953125 -46.421875 18.070312 -45.925781 18.3125 -45.4375 L 28.65625 -26.625 L 39.375 -45.4375 C 39.65625 -45.925781 39.796875 -46.421875 39.796875 -46.921875 C 39.796875 -47.429688 39.628906 -47.925781 39.296875 -48.40625 C 38.710938 -49.414062 37.894531 -49.921875 36.84375 -49.921875 L 35.96875 -49.921875 L 35.96875 -50.65625 L 53.1875 -50.65625 Z M 53.1875 -49.921875 "/></g></g></g><g fill="#e3ae5b" fill-opacity="1"><g transform="translate(315.338897, 266.740509)"><g><path d="M 53.40625 -0.71875 L 54.0625 -0.71875 L 54.0625 0 L 30.96875 0 L 30.96875 -0.71875 L 31.625 -0.71875 C 32.6875 -0.71875 33.46875 -1.039062 33.96875 -1.6875 C 34.476562 -2.34375 34.734375 -2.957031 34.734375 -3.53125 C 34.734375 -4.113281 34.613281 -4.695312 34.375 -5.28125 L 30.828125 -14.1875 L 13.90625 -14.1875 L 10.140625 -5.28125 C 9.898438 -4.65625 9.78125 -4.0625 9.78125 -3.5 C 9.78125 -2.945312 10.03125 -2.34375 10.53125 -1.6875 C 11.039062 -1.039062 11.847656 -0.71875 12.953125 -0.71875 L 13.53125 -0.71875 L 13.53125 0 L -1.953125 0 L -1.953125 -0.71875 L -1.296875 -0.71875 C -0.179688 -0.71875 0.925781 -1.054688 2.03125 -1.734375 C 3.144531 -2.410156 4.0625 -3.425781 4.78125 -4.78125 L 21.5 -42.625 C 23.757812 -47.394531 24.960938 -50.550781 25.109375 -52.09375 L 25.765625 -52.09375 L 47.25 -4.921875 C 47.976562 -3.523438 48.894531 -2.472656 50 -1.765625 C 51.113281 -1.066406 52.25 -0.71875 53.40625 -0.71875 Z M 15.125 -17.21875 L 29.59375 -17.21875 L 22.578125 -35.015625 Z M 15.125 -17.21875 "/></g></g></g><g fill="#000000" fill-opacity="1"><g transform="translate(119.205357, 313.593188)"><g><path d="M 8.59375 0.34375 C 7.101562 0.34375 5.804688 0.078125 4.703125 -0.453125 C 3.609375 -0.992188 2.757812 -1.75 2.15625 -2.71875 C 1.5625 -3.6875 1.265625 -4.804688 1.265625 -6.078125 L 3.8125 -6.078125 C 3.8125 -5.285156 3.992188 -4.554688 4.359375 -3.890625 C 4.734375 -3.222656 5.269531 -2.691406 5.96875 -2.296875 C 6.675781 -1.898438 7.550781 -1.703125 8.59375 -1.703125 C 9.96875 -1.703125 11.03125 -2.03125 11.78125 -2.6875 C 12.53125 -3.34375 12.90625 -4.164062 12.90625 -5.15625 C 12.90625 -5.957031 12.726562 -6.601562 12.375 -7.09375 C 12.03125 -7.59375 11.5625 -7.992188 10.96875 -8.296875 C 10.382812 -8.609375 9.710938 -8.878906 8.953125 -9.109375 C 8.191406 -9.347656 7.394531 -9.609375 6.5625 -9.890625 C 5 -10.429688 3.84375 -11.101562 3.09375 -11.90625 C 2.34375 -12.707031 1.96875 -13.753906 1.96875 -15.046875 C 1.945312 -16.128906 2.195312 -17.085938 2.71875 -17.921875 C 3.238281 -18.765625 3.972656 -19.421875 4.921875 -19.890625 C 5.878906 -20.367188 7.015625 -20.609375 8.328125 -20.609375 C 9.617188 -20.609375 10.742188 -20.363281 11.703125 -19.875 C 12.660156 -19.394531 13.40625 -18.726562 13.9375 -17.875 C 14.46875 -17.03125 14.742188 -16.066406 14.765625 -14.984375 L 12.21875 -14.984375 C 12.21875 -15.546875 12.070312 -16.101562 11.78125 -16.65625 C 11.488281 -17.207031 11.046875 -17.65625 10.453125 -18 C 9.867188 -18.34375 9.132812 -18.515625 8.25 -18.515625 C 7.144531 -18.535156 6.238281 -18.253906 5.53125 -17.671875 C 4.832031 -17.097656 4.484375 -16.300781 4.484375 -15.28125 C 4.484375 -14.414062 4.726562 -13.75 5.21875 -13.28125 C 5.71875 -12.820312 6.410156 -12.441406 7.296875 -12.140625 C 8.179688 -11.835938 9.203125 -11.492188 10.359375 -11.109375 C 11.328125 -10.765625 12.195312 -10.359375 12.96875 -9.890625 C 13.738281 -9.429688 14.335938 -8.832031 14.765625 -8.09375 C 15.203125 -7.363281 15.421875 -6.429688 15.421875 -5.296875 C 15.421875 -4.328125 15.171875 -3.410156 14.671875 -2.546875 C 14.171875 -1.691406 13.410156 -0.992188 12.390625 -0.453125 C 11.378906 0.078125 10.113281 0.34375 8.59375 0.34375 Z M 8.59375 0.34375 "/></g></g></g><g fill="#000000" fill-opacity="1"><g transform="translate(135.930793, 313.593188)"><g><path d="M 2 0 L 2 -20.828125 L 4.421875 -20.828125 L 4.421875 -8.3125 L 10.296875 -14.359375 L 13.28125 -14.359375 L 6.921875 -7.875 L 14.09375 0 L 11 0 L 4.421875 -7.4375 L 4.421875 0 Z M 2 0 "/></g></g></g><g fill="#000000" fill-opacity="1"><g transform="translate(150.514906, 313.593188)"><g><path d="M 3.46875 -17.53125 C 2.988281 -17.53125 2.585938 -17.6875 2.265625 -18 C 1.953125 -18.320312 1.796875 -18.726562 1.796875 -19.21875 C 1.796875 -19.675781 1.953125 -20.054688 2.265625 -20.359375 C 2.585938 -20.671875 2.988281 -20.828125 3.46875 -20.828125 C 3.9375 -20.828125 4.332031 -20.671875 4.65625 -20.359375 C 4.988281 -20.054688 5.15625 -19.675781 5.15625 -19.21875 C 5.15625 -18.726562 4.988281 -18.320312 4.65625 -18 C 4.332031 -17.6875 3.9375 -17.53125 3.46875 -17.53125 Z M 2.25 0 L 2.25 -14.359375 L 4.6875 -14.359375 L 4.6875 0 Z M 2.25 0 "/></g></g></g><g fill="#000000" fill-opacity="1"><g transform="translate(157.430783, 313.593188)"><g><path d="M 2 0 L 2 -14.359375 L 4.203125 -14.359375 L 4.34375 -11.78125 C 4.800781 -12.6875 5.460938 -13.398438 6.328125 -13.921875 C 7.203125 -14.441406 8.1875 -14.703125 9.28125 -14.703125 C 10.976562 -14.703125 12.332031 -14.1875 13.34375 -13.15625 C 14.363281 -12.125 14.875 -10.535156 14.875 -8.390625 L 14.875 0 L 12.4375 0 L 12.4375 -8.125 C 12.4375 -11.113281 11.203125 -12.609375 8.734375 -12.609375 C 7.503906 -12.609375 6.476562 -12.160156 5.65625 -11.265625 C 4.832031 -10.367188 4.421875 -9.09375 4.421875 -7.4375 L 4.421875 0 Z M 2 0 "/></g></g></g><g fill="#000000" fill-opacity="1"><g transform="translate(173.982591, 313.593188)"><g/></g></g><g fill="#000000" fill-opacity="1"><g transform="translate(181.650826, 313.593188)"><g><path d="M 11.03125 0.34375 C 9.039062 0.34375 7.328125 -0.09375 5.890625 -0.96875 C 4.453125 -1.84375 3.335938 -3.066406 2.546875 -4.640625 C 1.753906 -6.210938 1.359375 -8.039062 1.359375 -10.125 C 1.359375 -12.1875 1.753906 -14.003906 2.546875 -15.578125 C 3.335938 -17.148438 4.453125 -18.378906 5.890625 -19.265625 C 7.328125 -20.160156 9.039062 -20.609375 11.03125 -20.609375 C 13.34375 -20.609375 15.226562 -20.050781 16.6875 -18.9375 C 18.144531 -17.832031 19.070312 -16.285156 19.46875 -14.296875 L 16.78125 -14.296875 C 16.476562 -15.546875 15.847656 -16.550781 14.890625 -17.3125 C 13.929688 -18.082031 12.644531 -18.46875 11.03125 -18.46875 C 9.582031 -18.46875 8.316406 -18.132812 7.234375 -17.46875 C 6.148438 -16.800781 5.3125 -15.84375 4.71875 -14.59375 C 4.132812 -13.351562 3.84375 -11.863281 3.84375 -10.125 C 3.84375 -8.394531 4.132812 -6.90625 4.71875 -5.65625 C 5.3125 -4.414062 6.148438 -3.460938 7.234375 -2.796875 C 8.316406 -2.128906 9.582031 -1.796875 11.03125 -1.796875 C 12.644531 -1.796875 13.929688 -2.164062 14.890625 -2.90625 C 15.847656 -3.644531 16.476562 -4.632812 16.78125 -5.875 L 19.46875 -5.875 C 19.070312 -3.925781 18.144531 -2.398438 16.6875 -1.296875 C 15.226562 -0.203125 13.34375 0.34375 11.03125 0.34375 Z M 11.03125 0.34375 "/></g></g></g><g fill="#000000" fill-opacity="1"><g transform="translate(202.485263, 313.593188)"><g><path d="M 2 0 L 2 -20.828125 L 4.421875 -20.828125 L 4.421875 0 Z M 2 0 "/></g></g></g><g fill="#000000" fill-opacity="1"><g transform="translate(208.909216, 313.593188)"><g><path d="M 3.46875 -17.53125 C 2.988281 -17.53125 2.585938 -17.6875 2.265625 -18 C 1.953125 -18.320312 1.796875 -18.726562 1.796875 -19.21875 C 1.796875 -19.675781 1.953125 -20.054688 2.265625 -20.359375 C 2.585938 -20.671875 2.988281 -20.828125 3.46875 -20.828125 C 3.9375 -20.828125 4.332031 -20.671875 4.65625 -20.359375 C 4.988281 -20.054688 5.15625 -19.675781 5.15625 -19.21875 C 5.15625 -18.726562 4.988281 -18.320312 4.65625 -18 C 4.332031 -17.6875 3.9375 -17.53125 3.46875 -17.53125 Z M 2.25 0 L 2.25 -14.359375 L 4.6875 -14.359375 L 4.6875 0 Z M 2.25 0 "/></g></g></g><g fill="#000000" fill-opacity="1"><g transform="translate(215.825094, 313.593188)"><g><path d="M 2 0 L 2 -14.359375 L 4.203125 -14.359375 L 4.34375 -11.78125 C 4.800781 -12.6875 5.460938 -13.398438 6.328125 -13.921875 C 7.203125 -14.441406 8.1875 -14.703125 9.28125 -14.703125 C 10.976562 -14.703125 12.332031 -14.1875 13.34375 -13.15625 C 14.363281 -12.125 14.875 -10.535156 14.875 -8.390625 L 14.875 0 L 12.4375 0 L 12.4375 -8.125 C 12.4375 -11.113281 11.203125 -12.609375 8.734375 -12.609375 C 7.503906 -12.609375 6.476562 -12.160156 5.65625 -11.265625 C 4.832031 -10.367188 4.421875 -9.09375 4.421875 -7.4375 L 4.421875 0 Z M 2 0 "/></g></g></g><g fill="#000000" fill-opacity="1"><g transform="translate(232.376902, 313.593188)"><g><path d="M 3.46875 -17.53125 C 2.988281 -17.53125 2.585938 -17.6875 2.265625 -18 C 1.953125 -18.320312 1.796875 -18.726562 1.796875 -19.21875 C 1.796875 -19.675781 1.953125 -20.054688 2.265625 -20.359375 C 2.585938 -20.671875 2.988281 -20.828125 3.46875 -20.828125 C 3.9375 -20.828125 4.332031 -20.671875 4.65625 -20.359375 C 4.988281 -20.054688 5.15625 -19.675781 5.15625 -19.21875 C 5.15625 -18.726562 4.988281 -18.320312 4.65625 -18 C 4.332031 -17.6875 3.9375 -17.53125 3.46875 -17.53125 Z M 2.25 0 L 2.25 -14.359375 L 4.6875 -14.359375 L 4.6875 0 Z M 2.25 0 "/></g></g></g><g fill="#000000" fill-opacity="1"><g transform="translate(239.292779, 313.593188)"><g><path d="M 8.59375 0.34375 C 7.226562 0.34375 6 0.03125 4.90625 -0.59375 C 3.8125 -1.21875 2.953125 -2.09375 2.328125 -3.21875 C 1.703125 -4.351562 1.390625 -5.671875 1.390625 -7.171875 C 1.390625 -8.679688 1.703125 -10 2.328125 -11.125 C 2.953125 -12.25 3.8125 -13.125 4.90625 -13.75 C 6 -14.382812 7.226562 -14.703125 8.59375 -14.703125 C 10.289062 -14.703125 11.722656 -14.253906 12.890625 -13.359375 C 14.054688 -12.472656 14.796875 -11.289062 15.109375 -9.8125 L 12.609375 -9.8125 C 12.421875 -10.695312 11.945312 -11.382812 11.1875 -11.875 C 10.4375 -12.363281 9.5625 -12.609375 8.5625 -12.609375 C 7.75 -12.609375 6.984375 -12.40625 6.265625 -12 C 5.554688 -11.601562 4.976562 -11 4.53125 -10.1875 C 4.09375 -9.375 3.875 -8.367188 3.875 -7.171875 C 3.875 -5.972656 4.09375 -4.96875 4.53125 -4.15625 C 4.976562 -3.351562 5.554688 -2.742188 6.265625 -2.328125 C 6.984375 -1.910156 7.75 -1.703125 8.5625 -1.703125 C 9.5625 -1.703125 10.4375 -1.945312 11.1875 -2.4375 C 11.945312 -2.9375 12.421875 -3.640625 12.609375 -4.546875 L 15.109375 -4.546875 C 14.816406 -3.097656 14.082031 -1.921875 12.90625 -1.015625 C 11.726562 -0.109375 10.289062 0.34375 8.59375 0.34375 Z M 8.59375 0.34375 "/></g></g></g></svg>