<svg xmlns="http://www.w3.org/2000/svg" xmlns:xlink="http://www.w3.org/1999/xlink" width="1920" zoomAndPan="magnify" viewBox="0 0 1440 809.999993" height="1080" preserveAspectRatio="xMidYMid meet" version="1.0"><defs><g/><clipPath id="599a40501c"><path d="M 284 244.535156 L 368 244.535156 L 368 379 L 284 379 Z M 284 244.535156 " clip-rule="nonzero"/></clipPath><clipPath id="a24a380a7b"><path d="M 327 495 L 570.75 495 L 570.75 531 L 327 531 Z M 327 495 " clip-rule="nonzero"/></clipPath></defs><path fill="#ffcf86" d="M 317.03125 480.808594 C 317.03125 480.808594 161.992188 564.496094 131.601562 375.101562 C 131.601562 375.101562 145.695312 386.554688 176.527344 383.910156 C 207.363281 381.265625 293.6875 395.804688 317.03125 480.808594 Z M 317.03125 480.808594 " fill-opacity="1" fill-rule="nonzero"/><path fill="#ffcf86" d="M 319.632812 458.898438 C 319.632812 458.898438 344.738281 353.851562 249.597656 305.621094 C 249.597656 305.621094 222.511719 296.371094 216.234375 286.460938 C 216.234375 286.460938 205.335938 353.191406 219.867188 378.292969 C 219.867188 378.292969 292.363281 387.007812 319.453125 460.011719 Z M 319.632812 458.898438 " fill-opacity="1" fill-rule="nonzero"/><path fill="#ffcf86" d="M 335.402344 481.691406 C 335.402344 481.691406 490.441406 565.378906 520.832031 375.984375 C 520.832031 375.984375 506.738281 387.4375 475.90625 384.792969 C 445.070312 382.148438 358.746094 396.683594 335.402344 481.691406 Z M 335.402344 481.691406 " fill-opacity="1" fill-rule="nonzero"/><path fill="#ffcf86" d="M 332.980469 460.011719 C 360.066406 387.007812 432.5625 378.292969 432.5625 378.292969 C 447.097656 353.191406 436.195312 286.460938 436.195312 286.460938 C 429.917969 296.371094 402.832031 305.621094 402.832031 305.621094 C 307.691406 353.851562 332.800781 458.898438 332.800781 458.898438 Z M 332.980469 460.011719 " fill-opacity="1" fill-rule="nonzero"/><g clip-path="url(#599a40501c)"><path fill="#ffcf86" d="M 284.695312 316.523438 C 284.695312 316.523438 317.089844 339.945312 325.65625 378.296875 C 325.65625 378.296875 338.539062 337.769531 367.277344 316.523438 C 367.277344 316.523438 349.21875 265.863281 324.777344 244.621094 C 324.777344 244.621094 296.367188 279.15625 284.695312 316.523438 Z M 284.695312 316.523438 " fill-opacity="1" fill-rule="nonzero"/></g><path fill="#ffcf86" d="M 81.011719 527.375 C 81.011719 527.375 121.09375 503.554688 188.578125 508.910156 C 256.0625 514.265625 298.863281 516.714844 323.992188 495.265625 C 323.992188 495.265625 294.574219 534.261719 243.207031 530.644531 C 191.835938 527.03125 161.796875 505.789062 81.011719 527.375 Z M 81.011719 527.375 " fill-opacity="1" fill-rule="nonzero"/><g clip-path="url(#a24a380a7b)"><path fill="#ffcf86" d="M 570.964844 527.375 C 570.964844 527.375 530.882812 503.554688 463.394531 508.910156 C 395.910156 514.265625 353.109375 516.714844 327.984375 495.265625 C 327.984375 495.265625 357.402344 534.261719 408.769531 530.644531 C 460.136719 527.03125 490.179688 505.789062 570.964844 527.375 Z M 570.964844 527.375 " fill-opacity="1" fill-rule="nonzero"/></g><g fill="#ffbc57" fill-opacity="1"><g transform="translate(542.984571, 417.453925)"><g><path d="M 137.171875 -1.859375 L 138.84375 -1.859375 L 138.84375 0 L 79.546875 0 L 79.546875 -1.859375 L 81.21875 -1.859375 C 83.945312 -1.859375 85.960938 -2.691406 87.265625 -4.359375 C 88.566406 -6.035156 89.21875 -7.617188 89.21875 -9.109375 C 89.21875 -10.597656 88.90625 -12.082031 88.28125 -13.5625 L 79.171875 -36.421875 L 35.6875 -36.421875 L 26.015625 -13.5625 C 25.398438 -11.957031 25.09375 -10.441406 25.09375 -9.015625 C 25.09375 -7.585938 25.773438 -6.035156 27.140625 -4.359375 C 28.503906 -2.691406 30.546875 -1.859375 33.265625 -1.859375 L 34.75 -1.859375 L 34.75 0 L -5.015625 0 L -5.015625 -1.859375 L -3.34375 -1.859375 C -0.488281 -1.859375 2.359375 -2.722656 5.203125 -4.453125 C 8.054688 -6.191406 10.410156 -8.796875 12.265625 -12.265625 L 55.203125 -109.46875 C 61.023438 -121.738281 64.125 -129.851562 64.5 -133.8125 L 66.171875 -133.8125 L 121.375 -12.640625 C 123.226562 -9.046875 125.578125 -6.347656 128.421875 -4.546875 C 131.273438 -2.753906 134.191406 -1.859375 137.171875 -1.859375 Z M 38.84375 -44.234375 L 76.015625 -44.234375 L 57.984375 -89.953125 Z M 38.84375 -44.234375 "/></g></g></g><g fill="#ffbc57" fill-opacity="1"><g transform="translate(676.059884, 417.453925)"><g><path d="M 123.78125 -109.65625 L 122.296875 -109.65625 C 119.691406 -109.65625 117.085938 -108.878906 114.484375 -107.328125 C 111.890625 -105.785156 109.785156 -103.398438 108.171875 -100.171875 L 70.25 -20.265625 C 64.800781 -8.367188 61.953125 -0.804688 61.703125 2.421875 L 60.03125 2.421875 L 10.59375 -99.8125 C 7.25 -106.375 2.539062 -109.65625 -3.53125 -109.65625 L -4.828125 -109.65625 L -4.828125 -111.515625 L 49.625 -111.515625 L 49.625 -109.84375 L 48.140625 -109.84375 C 45.785156 -109.84375 44.019531 -109.066406 42.84375 -107.515625 C 41.664062 -105.972656 41.078125 -104.550781 41.078125 -103.25 C 41.078125 -101.945312 41.320312 -100.613281 41.8125 -99.25 L 67.84375 -38.84375 L 94.421875 -99.25 C 95.035156 -100.738281 95.34375 -102.101562 95.34375 -103.34375 C 95.34375 -104.582031 94.753906 -105.972656 93.578125 -107.515625 C 92.398438 -109.066406 90.632812 -109.84375 88.28125 -109.84375 L 86.796875 -109.84375 L 86.796875 -111.515625 L 123.78125 -111.515625 Z M 123.78125 -109.65625 "/></g></g></g><g fill="#ffbc57" fill-opacity="1"><g transform="translate(794.26644, 417.453925)"><g><path d="M 6.3125 -1.859375 L 8.546875 -1.859375 C 11.523438 -1.859375 14.066406 -2.816406 16.171875 -4.734375 C 18.273438 -6.660156 19.328125 -8.984375 19.328125 -11.703125 L 19.328125 -99.8125 C 19.328125 -102.53125 18.273438 -104.847656 16.171875 -106.765625 C 14.066406 -108.691406 11.523438 -109.65625 8.546875 -109.65625 L 6.3125 -109.65625 L 6.3125 -111.515625 L 59.109375 -111.515625 L 59.109375 -109.65625 L 56.875 -109.65625 C 54.019531 -109.65625 51.539062 -108.722656 49.4375 -106.859375 C 47.332031 -105.003906 46.21875 -102.71875 46.09375 -100 L 46.09375 -11.703125 C 46.21875 -8.859375 47.332031 -6.503906 49.4375 -4.640625 C 51.539062 -2.785156 54.019531 -1.859375 56.875 -1.859375 L 59.109375 -1.859375 L 59.109375 0 L 6.3125 0 Z M 6.3125 -1.859375 "/></g></g></g><g fill="#ffbc57" fill-opacity="1"><g transform="translate(859.688945, 417.453925)"><g><path d="M 88.84375 -111.515625 L 141.0625 -111.515625 L 141.0625 -109.65625 L 137.90625 -109.65625 C 135.0625 -109.65625 132.675781 -108.785156 130.75 -107.046875 C 128.832031 -105.316406 127.8125 -103.085938 127.6875 -100.359375 L 127.6875 -19.140625 C 127.6875 -11.460938 128.179688 -5.144531 129.171875 -0.1875 L 129.546875 2.421875 L 127.875 2.421875 L 42.5625 -72.859375 L 42.5625 -11.34375 C 42.6875 -8.613281 43.707031 -6.347656 45.625 -4.546875 C 47.550781 -2.753906 49.9375 -1.859375 52.78125 -1.859375 L 55.9375 -1.859375 L 55.9375 0 L 3.90625 0 L 3.90625 -1.859375 L 6.875 -1.859375 C 9.726562 -1.859375 12.144531 -2.753906 14.125 -4.546875 C 16.101562 -6.347656 17.09375 -8.613281 17.09375 -11.34375 L 17.09375 -93.109375 C 17.09375 -100.546875 16.597656 -106.679688 15.609375 -111.515625 L 15.234375 -114.125 L 16.90625 -113.9375 L 102.03125 -39.03125 L 102.03125 -100.171875 C 102.03125 -102.898438 101.070312 -105.160156 99.15625 -106.953125 C 97.238281 -108.753906 94.851562 -109.65625 92 -109.65625 L 88.84375 -109.65625 Z M 88.84375 -111.515625 "/></g></g></g><g fill="#ffbc57" fill-opacity="1"><g transform="translate(1004.473408, 417.453925)"><g><path d="M 88.84375 -111.515625 L 141.0625 -111.515625 L 141.0625 -109.65625 L 137.90625 -109.65625 C 135.0625 -109.65625 132.675781 -108.785156 130.75 -107.046875 C 128.832031 -105.316406 127.8125 -103.085938 127.6875 -100.359375 L 127.6875 -19.140625 C 127.6875 -11.460938 128.179688 -5.144531 129.171875 -0.1875 L 129.546875 2.421875 L 127.875 2.421875 L 42.5625 -72.859375 L 42.5625 -11.34375 C 42.6875 -8.613281 43.707031 -6.347656 45.625 -4.546875 C 47.550781 -2.753906 49.9375 -1.859375 52.78125 -1.859375 L 55.9375 -1.859375 L 55.9375 0 L 3.90625 0 L 3.90625 -1.859375 L 6.875 -1.859375 C 9.726562 -1.859375 12.144531 -2.753906 14.125 -4.546875 C 16.101562 -6.347656 17.09375 -8.613281 17.09375 -11.34375 L 17.09375 -93.109375 C 17.09375 -100.546875 16.597656 -106.679688 15.609375 -111.515625 L 15.234375 -114.125 L 16.90625 -113.9375 L 102.03125 -39.03125 L 102.03125 -100.171875 C 102.03125 -102.898438 101.070312 -105.160156 99.15625 -106.953125 C 97.238281 -108.753906 94.851562 -109.65625 92 -109.65625 L 88.84375 -109.65625 Z M 88.84375 -111.515625 "/></g></g></g><g fill="#ffbc57" fill-opacity="1"><g transform="translate(1149.25787, 417.453925)"><g><path d="M 124.53125 -109.65625 L 122.109375 -109.65625 C 118.890625 -109.65625 115.820312 -108.785156 112.90625 -107.046875 C 110 -105.316406 107.613281 -103.148438 105.75 -100.546875 L 72.671875 -49.625 L 72.671875 -11.703125 C 72.796875 -8.984375 73.847656 -6.660156 75.828125 -4.734375 C 77.816406 -2.816406 80.296875 -1.859375 83.265625 -1.859375 L 85.3125 -1.859375 L 85.3125 0 L 33.265625 0 L 33.265625 -1.859375 L 35.5 -1.859375 C 38.351562 -1.859375 40.769531 -2.816406 42.75 -4.734375 C 44.726562 -6.660156 45.78125 -8.984375 45.90625 -11.703125 L 45.90625 -49.625 L 13.015625 -100.546875 C 11.273438 -103.273438 8.945312 -105.472656 6.03125 -107.140625 C 3.125 -108.816406 0 -109.65625 -3.34375 -109.65625 L -5.578125 -109.65625 L -5.578125 -111.515625 L 50.921875 -111.515625 L 50.921875 -109.65625 L 48.875 -109.65625 C 46.519531 -109.65625 44.816406 -108.878906 43.765625 -107.328125 C 42.710938 -105.785156 42.1875 -104.484375 42.1875 -103.421875 C 42.1875 -102.367188 42.4375 -101.410156 42.9375 -100.546875 L 67.65625 -57.796875 L 92.75 -100.546875 C 93.113281 -101.410156 93.296875 -102.367188 93.296875 -103.421875 C 93.296875 -104.484375 92.769531 -105.785156 91.71875 -107.328125 C 90.664062 -108.878906 88.960938 -109.65625 86.609375 -109.65625 L 84.75 -109.65625 L 84.75 -111.515625 L 124.53125 -111.515625 Z M 124.53125 -109.65625 "/></g></g></g><g fill="#ffbc57" fill-opacity="1"><g transform="translate(1267.278586, 417.453925)"><g><path d="M 123.78125 -1.859375 L 125.265625 -1.859375 L 125.265625 0 L 70.625 0 L 70.625 -1.859375 L 72.109375 -1.859375 C 74.585938 -1.859375 76.382812 -2.597656 77.5 -4.078125 C 78.613281 -5.566406 79.171875 -6.929688 79.171875 -8.171875 C 79.171875 -9.410156 78.925781 -10.710938 78.4375 -12.078125 L 71.1875 -29.1875 L 31.78125 -29.1875 L 24.34375 -11.890625 C 23.851562 -10.648438 23.609375 -9.378906 23.609375 -8.078125 C 23.609375 -6.785156 24.195312 -5.425781 25.375 -4 C 26.550781 -2.570312 28.378906 -1.859375 30.859375 -1.859375 L 32.34375 -1.859375 L 32.34375 0 L -4.828125 0 L -4.828125 -1.859375 L -3.34375 -1.859375 C -0.738281 -1.859375 1.859375 -2.660156 4.453125 -4.265625 C 7.054688 -5.878906 9.164062 -8.296875 10.78125 -11.515625 L 49.25 -94.046875 C 54.707031 -106.304688 57.554688 -113.863281 57.796875 -116.71875 L 59.484375 -116.71875 L 109.28125 -12.265625 C 110.894531 -8.671875 113.03125 -6.035156 115.6875 -4.359375 C 118.351562 -2.691406 121.050781 -1.859375 123.78125 -1.859375 Z M 34.9375 -36.421875 L 68.03125 -36.421875 L 51.671875 -75.265625 Z M 34.9375 -36.421875 "/></g></g></g><g fill="#000000" fill-opacity="1"><g transform="translate(750.805686, 517.02357)"><g><path d="M 4.328125 -2.90625 C 4.191406 -3.570312 4.125 -4.847656 4.125 -6.734375 C 4.125 -8.628906 4.476562 -10.644531 5.1875 -12.78125 L 5.828125 -12.78125 C 5.773438 -12.257812 5.75 -11.738281 5.75 -11.21875 C 5.75 -8.332031 6.625 -5.929688 8.375 -4.015625 C 10.125 -2.097656 12.445312 -1.140625 15.34375 -1.140625 C 18.320312 -1.140625 20.769531 -2.035156 22.6875 -3.828125 C 24.601562 -5.628906 25.5625 -7.890625 25.5625 -10.609375 C 25.5625 -13.335938 24.640625 -15.550781 22.796875 -17.25 L 9.15625 -29.890625 C 6.601562 -32.253906 5.328125 -35.113281 5.328125 -38.46875 C 5.328125 -41.832031 6.445312 -44.707031 8.6875 -47.09375 C 10.9375 -49.488281 13.984375 -50.6875 17.828125 -50.6875 C 19.617188 -50.6875 21.648438 -50.453125 23.921875 -49.984375 L 26.703125 -49.984375 L 26.703125 -41.25 L 26.0625 -41.25 C 26.0625 -43.476562 25.289062 -45.253906 23.75 -46.578125 C 22.207031 -47.898438 20.226562 -48.5625 17.8125 -48.5625 C 15.40625 -48.5625 13.382812 -47.753906 11.75 -46.140625 C 10.113281 -44.535156 9.296875 -42.523438 9.296875 -40.109375 C 9.296875 -37.703125 10.242188 -35.617188 12.140625 -33.859375 L 26.125 -20.9375 C 28.488281 -18.757812 29.671875 -15.773438 29.671875 -11.984375 C 29.671875 -8.203125 28.460938 -5.09375 26.046875 -2.65625 C 23.640625 -0.21875 20.425781 1 16.40625 1 C 14.320312 1 12.109375 0.675781 9.765625 0.03125 C 7.421875 -0.601562 5.609375 -1.582031 4.328125 -2.90625 Z M 4.328125 -2.90625 "/></g></g></g><g fill="#000000" fill-opacity="1"><g transform="translate(784.526971, 517.02357)"><g><path d="M 44.65625 0 L 42.03125 0 C 37.394531 0 33.914062 -1.347656 31.59375 -4.046875 L 15.96875 -21.15625 L 31.234375 -39.125 C 31.753906 -39.78125 31.835938 -40.40625 31.484375 -41 C 31.128906 -41.59375 30.523438 -41.890625 29.671875 -41.890625 L 29.03125 -41.890625 L 29.03125 -42.59375 L 43.515625 -42.59375 L 43.515625 -41.890625 L 43.234375 -41.890625 C 40.347656 -41.890625 38.054688 -41.035156 36.359375 -39.328125 L 20.875 -22.796875 L 38.484375 -3.625 C 39.335938 -2.582031 40.210938 -1.847656 41.109375 -1.421875 C 42.003906 -0.992188 43.1875 -0.753906 44.65625 -0.703125 Z M 17.671875 -0.703125 L 18.453125 -0.703125 L 18.453125 0 L 3.90625 0 L 3.90625 -0.703125 L 4.75 -0.703125 C 5.894531 -0.703125 6.867188 -1.082031 7.671875 -1.84375 C 8.472656 -2.601562 8.898438 -3.503906 8.953125 -4.546875 L 8.953125 -38.0625 C 8.898438 -39.101562 8.472656 -40 7.671875 -40.75 C 6.867188 -41.507812 5.894531 -41.890625 4.75 -41.890625 L 3.90625 -41.890625 L 3.90625 -42.59375 L 18.453125 -42.59375 L 18.453125 -41.890625 L 17.609375 -41.890625 C 16.097656 -41.890625 14.914062 -41.273438 14.0625 -40.046875 C 13.675781 -39.472656 13.484375 -38.832031 13.484375 -38.125 L 13.484375 -4.46875 C 13.484375 -3.425781 13.894531 -2.535156 14.71875 -1.796875 C 15.550781 -1.066406 16.535156 -0.703125 17.671875 -0.703125 Z M 17.671875 -0.703125 "/></g></g></g><g fill="#000000" fill-opacity="1"><g transform="translate(828.826087, 517.02357)"><g><path d="M 4.90625 -0.703125 C 6.175781 -0.703125 7.285156 -1.082031 8.234375 -1.84375 C 9.179688 -2.601562 9.65625 -3.503906 9.65625 -4.546875 L 9.65625 -38.0625 C 9.65625 -39.101562 9.179688 -40 8.234375 -40.75 C 7.285156 -41.507812 6.148438 -41.890625 4.828125 -41.890625 L 3.90625 -41.890625 L 3.90625 -42.59375 L 19.953125 -42.59375 L 19.953125 -41.890625 L 19.03125 -41.890625 C 17.75 -41.890625 16.644531 -41.535156 15.71875 -40.828125 C 14.800781 -40.117188 14.296875 -39.242188 14.203125 -38.203125 L 14.203125 -4.46875 C 14.242188 -3.425781 14.738281 -2.535156 15.6875 -1.796875 C 16.632812 -1.066406 17.75 -0.703125 19.03125 -0.703125 L 19.953125 -0.703125 L 20.015625 0 L 3.90625 0 L 3.90625 -0.703125 Z M 4.90625 -0.703125 "/></g></g></g><g fill="#000000" fill-opacity="1"><g transform="translate(852.679453, 517.02357)"><g><path d="M 51.609375 -41.890625 C 50.578125 -41.890625 49.679688 -41.546875 48.921875 -40.859375 C 48.160156 -40.171875 47.757812 -39.332031 47.71875 -38.34375 L 47.71875 -8.09375 C 47.71875 -5.34375 47.878906 -2.738281 48.203125 -0.28125 L 48.34375 1 L 47.71875 1 L 10.796875 -34.015625 L 10.796875 -4.40625 C 10.796875 -3.363281 11.171875 -2.484375 11.921875 -1.765625 C 12.679688 -1.054688 13.609375 -0.703125 14.703125 -0.703125 L 15.90625 -0.703125 L 15.90625 0 L 2.484375 0 L 2.484375 -0.703125 L 3.6875 -0.703125 C 4.78125 -0.703125 5.703125 -1.054688 6.453125 -1.765625 C 7.210938 -2.484375 7.59375 -3.363281 7.59375 -4.40625 L 7.59375 -34.796875 C 7.59375 -37.679688 7.425781 -40.257812 7.09375 -42.53125 L 6.953125 -43.671875 L 7.734375 -43.59375 L 44.59375 -8.875 L 44.59375 -38.34375 C 44.5 -39.332031 44.070312 -40.171875 43.3125 -40.859375 C 42.550781 -41.546875 41.648438 -41.890625 40.609375 -41.890625 L 39.40625 -41.890625 L 39.40625 -42.59375 L 52.828125 -42.59375 L 52.828125 -41.890625 Z M 51.609375 -41.890625 "/></g></g></g><g fill="#000000" fill-opacity="1"><g transform="translate(907.982349, 517.02357)"><g/></g></g><g fill="#000000" fill-opacity="1"><g transform="translate(925.730395, 517.02357)"><g><path d="M 38.84375 -0.703125 C 40.070312 -0.703125 41.125 -1.128906 42 -1.984375 C 42.875 -2.835938 43.332031 -3.878906 43.375 -5.109375 L 43.375 -23.5 L 14.34375 -23.5 L 14.34375 -5.1875 C 14.34375 -3.957031 14.789062 -2.898438 15.6875 -2.015625 C 16.59375 -1.140625 17.660156 -0.703125 18.890625 -0.703125 L 19.8125 -0.703125 L 19.8125 0 L 4.265625 0 L 4.265625 -0.703125 L 5.1875 -0.703125 C 6.414062 -0.703125 7.46875 -1.140625 8.34375 -2.015625 C 9.21875 -2.898438 9.679688 -3.957031 9.734375 -5.1875 L 9.734375 -44.59375 C 9.679688 -45.820312 9.21875 -46.859375 8.34375 -47.703125 C 7.46875 -48.554688 6.414062 -48.984375 5.1875 -48.984375 L 4.265625 -48.984375 L 4.265625 -49.703125 L 19.8125 -49.703125 L 19.8125 -48.984375 L 18.890625 -48.984375 C 17.660156 -48.984375 16.601562 -48.554688 15.71875 -47.703125 C 14.84375 -46.859375 14.382812 -45.820312 14.34375 -44.59375 L 14.34375 -25.625 L 43.375 -25.625 L 43.375 -44.59375 C 43.332031 -46.289062 42.578125 -47.566406 41.109375 -48.421875 C 40.398438 -48.796875 39.644531 -48.984375 38.84375 -48.984375 L 37.90625 -48.984375 L 37.90625 -49.703125 L 53.46875 -49.703125 L 53.46875 -48.984375 L 52.546875 -48.984375 C 51.304688 -48.984375 50.25 -48.546875 49.375 -47.671875 C 48.5 -46.796875 48.039062 -45.742188 48 -44.515625 L 48 -5.1875 C 48.039062 -3.957031 48.5 -2.898438 49.375 -2.015625 C 50.25 -1.140625 51.304688 -0.703125 52.546875 -0.703125 L 53.46875 -0.703125 L 53.46875 0 L 37.90625 0 L 37.90625 -0.703125 Z M 38.84375 -0.703125 "/></g></g></g><g fill="#000000" fill-opacity="1"><g transform="translate(983.447033, 517.02357)"><g><path d="M 46.859375 -0.703125 L 47.421875 -0.703125 L 47.421875 0 L 32.875 0 L 32.875 -0.703125 L 33.4375 -0.703125 C 34.34375 -0.703125 35.03125 -1.007812 35.5 -1.625 C 35.96875 -2.25 36.203125 -2.832031 36.203125 -3.375 C 36.203125 -3.914062 36.109375 -4.445312 35.921875 -4.96875 L 32.015625 -14.40625 L 14.0625 -14.40625 L 10.15625 -5.1875 C 9.914062 -4.570312 9.796875 -3.988281 9.796875 -3.4375 C 9.796875 -2.894531 10.03125 -2.300781 10.5 -1.65625 C 10.976562 -1.019531 11.691406 -0.703125 12.640625 -0.703125 L 13.203125 -0.703125 L 13.203125 0 L -0.359375 0 L -0.359375 -0.703125 L 0.21875 -0.703125 C 1.207031 -0.703125 2.207031 -1.046875 3.21875 -1.734375 C 4.238281 -2.421875 5.082031 -3.453125 5.75 -4.828125 C 16.113281 -26.984375 21.507812 -38.582031 21.9375 -39.625 C 22.738281 -41.601562 23.164062 -42.925781 23.21875 -43.59375 L 23.859375 -43.59375 L 41.390625 -4.828125 C 42.765625 -2.078125 44.585938 -0.703125 46.859375 -0.703125 Z M 14.984375 -16.546875 L 31.171875 -16.546875 L 23.21875 -36 Z M 14.984375 -16.546875 "/></g></g></g><g fill="#000000" fill-opacity="1"><g transform="translate(1030.51484, 517.02357)"><g><path d="M 4.90625 -0.703125 C 6.175781 -0.703125 7.285156 -1.082031 8.234375 -1.84375 C 9.179688 -2.601562 9.65625 -3.503906 9.65625 -4.546875 L 9.65625 -38.0625 C 9.65625 -39.101562 9.179688 -40 8.234375 -40.75 C 7.285156 -41.507812 6.148438 -41.890625 4.828125 -41.890625 L 3.90625 -41.890625 L 3.90625 -42.59375 L 19.953125 -42.59375 L 19.953125 -41.890625 L 19.03125 -41.890625 C 17.75 -41.890625 16.644531 -41.535156 15.71875 -40.828125 C 14.800781 -40.117188 14.296875 -39.242188 14.203125 -38.203125 L 14.203125 -4.46875 C 14.242188 -3.425781 14.738281 -2.535156 15.6875 -1.796875 C 16.632812 -1.066406 17.75 -0.703125 19.03125 -0.703125 L 19.953125 -0.703125 L 20.015625 0 L 3.90625 0 L 3.90625 -0.703125 Z M 4.90625 -0.703125 "/></g></g></g><g fill="#000000" fill-opacity="1"><g transform="translate(1054.368217, 517.02357)"><g><path d="M 17.1875 -40.40625 L 13.421875 -40.40625 L 13.421875 -4.546875 C 13.460938 -3.078125 14.125 -1.960938 15.40625 -1.203125 C 16.019531 -0.867188 16.707031 -0.703125 17.46875 -0.703125 L 18.390625 -0.703125 L 18.453125 0 L 3.90625 0 L 3.90625 -0.703125 L 4.90625 -0.703125 C 5.988281 -0.703125 6.921875 -1.066406 7.703125 -1.796875 C 8.484375 -2.535156 8.875 -3.425781 8.875 -4.46875 L 8.875 -38.203125 C 8.875 -39.242188 8.484375 -40.117188 7.703125 -40.828125 C 6.921875 -41.535156 5.988281 -41.890625 4.90625 -41.890625 L 3.90625 -41.890625 L 3.90625 -42.59375 L 21.71875 -42.59375 C 26.175781 -42.59375 29.691406 -41.578125 32.265625 -39.546875 C 34.847656 -37.515625 36.140625 -34.835938 36.140625 -31.515625 C 36.140625 -28.203125 35.097656 -25.429688 33.015625 -23.203125 C 30.929688 -20.984375 28.28125 -19.710938 25.0625 -19.390625 C 26.570312 -18.722656 28.394531 -16.875 30.53125 -13.84375 C 30.476562 -13.84375 31.289062 -12.800781 32.96875 -10.71875 C 34.65625 -8.632812 36.003906 -7.015625 37.015625 -5.859375 C 38.035156 -4.703125 38.878906 -3.8125 39.546875 -3.1875 C 41.296875 -1.53125 43.304688 -0.703125 45.578125 -0.703125 L 45.578125 0 L 43.375 0 C 39.632812 0 36.703125 -0.734375 34.578125 -2.203125 C 32.960938 -3.285156 31.492188 -4.632812 30.171875 -6.25 C 29.890625 -6.625 28.695312 -8.289062 26.59375 -11.25 C 24.488281 -14.207031 23.363281 -15.78125 23.21875 -15.96875 C 20.664062 -19.144531 18.273438 -20.734375 16.046875 -20.734375 L 16.046875 -21.4375 C 21.585938 -21.4375 24.925781 -21.722656 26.0625 -22.296875 C 27.625 -23.097656 28.6875 -23.945312 29.25 -24.84375 C 30.4375 -26.738281 31.03125 -28.820312 31.03125 -31.09375 C 31.03125 -33.976562 30.175781 -36.203125 28.46875 -37.765625 C 26.769531 -39.328125 24.472656 -40.179688 21.578125 -40.328125 C 20.304688 -40.378906 18.84375 -40.40625 17.1875 -40.40625 Z M 17.1875 -40.40625 "/></g></g></g><g fill="#000000" fill-opacity="1"><g transform="translate(1098.880308, 517.02357)"><g/></g></g><g fill="#000000" fill-opacity="1"><g transform="translate(1116.628354, 517.02357)"><g><path d="M 5.1875 -0.703125 C 6.414062 -0.703125 7.46875 -1.140625 8.34375 -2.015625 C 9.21875 -2.898438 9.679688 -3.957031 9.734375 -5.1875 L 9.734375 -44.515625 C 9.679688 -45.742188 9.21875 -46.796875 8.34375 -47.671875 C 7.46875 -48.546875 6.414062 -48.984375 5.1875 -48.984375 L 4.265625 -48.984375 L 4.265625 -49.703125 L 19.8125 -49.703125 L 19.8125 -48.984375 L 18.890625 -48.984375 C 17.179688 -48.984375 15.878906 -48.253906 14.984375 -46.796875 C 14.554688 -46.078125 14.34375 -45.316406 14.34375 -44.515625 L 14.34375 -2.203125 L 24.5 -2.203125 C 28 -2.203125 30.671875 -2.984375 32.515625 -4.546875 C 34.359375 -6.109375 35.898438 -8.425781 37.140625 -11.5 L 37.84375 -11.5 L 33.71875 0 L 4.265625 0 L 4.265625 -0.703125 Z M 5.1875 -0.703125 "/></g></g></g><g fill="#000000" fill-opacity="1"><g transform="translate(1156.525958, 517.02357)"><g><path d="M 46.859375 -0.703125 L 47.421875 -0.703125 L 47.421875 0 L 32.875 0 L 32.875 -0.703125 L 33.4375 -0.703125 C 34.34375 -0.703125 35.03125 -1.007812 35.5 -1.625 C 35.96875 -2.25 36.203125 -2.832031 36.203125 -3.375 C 36.203125 -3.914062 36.109375 -4.445312 35.921875 -4.96875 L 32.015625 -14.40625 L 14.0625 -14.40625 L 10.15625 -5.1875 C 9.914062 -4.570312 9.796875 -3.988281 9.796875 -3.4375 C 9.796875 -2.894531 10.03125 -2.300781 10.5 -1.65625 C 10.976562 -1.019531 11.691406 -0.703125 12.640625 -0.703125 L 13.203125 -0.703125 L 13.203125 0 L -0.359375 0 L -0.359375 -0.703125 L 0.21875 -0.703125 C 1.207031 -0.703125 2.207031 -1.046875 3.21875 -1.734375 C 4.238281 -2.421875 5.082031 -3.453125 5.75 -4.828125 C 16.113281 -26.984375 21.507812 -38.582031 21.9375 -39.625 C 22.738281 -41.601562 23.164062 -42.925781 23.21875 -43.59375 L 23.859375 -43.59375 L 41.390625 -4.828125 C 42.765625 -2.078125 44.585938 -0.703125 46.859375 -0.703125 Z M 14.984375 -16.546875 L 31.171875 -16.546875 L 23.21875 -36 Z M 14.984375 -16.546875 "/></g></g></g><g fill="#000000" fill-opacity="1"><g transform="translate(1203.593766, 517.02357)"><g><path d="M 4.125 -2.34375 C 3.976562 -2.90625 3.90625 -4.0625 3.90625 -5.8125 C 3.90625 -7.570312 4.210938 -9.347656 4.828125 -11.140625 L 5.6875 -11.140625 C 5.632812 -10.722656 5.609375 -10.300781 5.609375 -9.875 C 5.609375 -7.3125 6.445312 -5.210938 8.125 -3.578125 C 9.8125 -1.953125 12.144531 -1.140625 15.125 -1.140625 C 18.25 -1.140625 20.6875 -1.859375 22.4375 -3.296875 C 24.1875 -4.742188 25.0625 -6.613281 25.0625 -8.90625 C 25.0625 -11.207031 24.207031 -13.113281 22.5 -14.625 L 8.3125 -25.5625 C 6.039062 -27.5 4.90625 -30.101562 4.90625 -33.375 C 4.90625 -35.21875 5.410156 -36.921875 6.421875 -38.484375 C 7.441406 -40.046875 8.863281 -41.285156 10.6875 -42.203125 C 12.507812 -43.128906 14.648438 -43.59375 17.109375 -43.59375 C 19.566406 -43.59375 21.742188 -43.378906 23.640625 -42.953125 L 25.984375 -42.953125 L 26.125 -35.21875 L 25.34375 -35.21875 C 25.34375 -37.207031 24.65625 -38.742188 23.28125 -39.828125 C 21.914062 -40.921875 19.953125 -41.46875 17.390625 -41.46875 C 14.835938 -41.46875 12.734375 -40.816406 11.078125 -39.515625 C 9.421875 -38.210938 8.59375 -36.53125 8.59375 -34.46875 C 8.59375 -32.40625 9.515625 -30.617188 11.359375 -29.109375 L 25.703125 -18.03125 C 27.878906 -16.238281 28.96875 -13.734375 28.96875 -10.515625 C 28.96875 -7.296875 27.75 -4.570312 25.3125 -2.34375 C 22.875 -0.113281 19.90625 1 16.40625 1 C 14.082031 1 11.757812 0.710938 9.4375 0.140625 C 7.125 -0.421875 5.351562 -1.25 4.125 -2.34375 Z M 4.125 -2.34375 "/></g></g></g><g fill="#000000" fill-opacity="1"><g transform="translate(1236.392119, 517.02357)"><g><path d="M 4.90625 -0.703125 C 6.039062 -0.703125 7 -1.066406 7.78125 -1.796875 C 8.5625 -2.535156 8.972656 -3.425781 9.015625 -4.46875 L 9.015625 -38.203125 C 9.015625 -39.242188 8.613281 -40.117188 7.8125 -40.828125 C 7.007812 -41.535156 6.039062 -41.890625 4.90625 -41.890625 L 3.90625 -41.890625 L 3.90625 -42.59375 L 24.640625 -42.59375 C 26.578125 -42.59375 28.28125 -42.734375 29.75 -43.015625 C 31.21875 -43.304688 32.164062 -43.546875 32.59375 -43.734375 L 32.59375 -35.640625 L 31.8125 -35.71875 L 31.8125 -36.78125 C 31.8125 -37.769531 31.476562 -38.617188 30.8125 -39.328125 C 30.144531 -40.046875 29.296875 -40.40625 28.265625 -40.40625 L 13.484375 -40.40625 L 13.484375 -22.359375 L 25.625 -22.359375 C 26.570312 -22.359375 27.296875 -22.640625 27.796875 -23.203125 C 28.296875 -23.773438 28.546875 -24.488281 28.546875 -25.34375 L 28.546875 -26.265625 L 29.328125 -26.265625 L 29.328125 -16.328125 L 28.546875 -16.328125 L 28.546875 -17.25 C 28.546875 -18.570312 28.046875 -19.472656 27.046875 -19.953125 C 26.671875 -20.085938 26.269531 -20.179688 25.84375 -20.234375 L 13.484375 -20.234375 L 13.484375 -2.203125 L 24.640625 -2.203125 C 26.816406 -2.203125 28.648438 -2.578125 30.140625 -3.328125 C 31.628906 -4.085938 32.765625 -4.988281 33.546875 -6.03125 C 34.328125 -7.070312 35.117188 -8.445312 35.921875 -10.15625 L 36.640625 -10.15625 L 32.734375 0 L 3.90625 0 L 3.90625 -0.703125 Z M 4.90625 -0.703125 "/></g></g></g><g fill="#000000" fill-opacity="1"><g transform="translate(1275.153851, 517.02357)"><g><path d="M 17.1875 -40.40625 L 13.421875 -40.40625 L 13.421875 -4.546875 C 13.460938 -3.078125 14.125 -1.960938 15.40625 -1.203125 C 16.019531 -0.867188 16.707031 -0.703125 17.46875 -0.703125 L 18.390625 -0.703125 L 18.453125 0 L 3.90625 0 L 3.90625 -0.703125 L 4.90625 -0.703125 C 5.988281 -0.703125 6.921875 -1.066406 7.703125 -1.796875 C 8.484375 -2.535156 8.875 -3.425781 8.875 -4.46875 L 8.875 -38.203125 C 8.875 -39.242188 8.484375 -40.117188 7.703125 -40.828125 C 6.921875 -41.535156 5.988281 -41.890625 4.90625 -41.890625 L 3.90625 -41.890625 L 3.90625 -42.59375 L 21.71875 -42.59375 C 26.175781 -42.59375 29.691406 -41.578125 32.265625 -39.546875 C 34.847656 -37.515625 36.140625 -34.835938 36.140625 -31.515625 C 36.140625 -28.203125 35.097656 -25.429688 33.015625 -23.203125 C 30.929688 -20.984375 28.28125 -19.710938 25.0625 -19.390625 C 26.570312 -18.722656 28.394531 -16.875 30.53125 -13.84375 C 30.476562 -13.84375 31.289062 -12.800781 32.96875 -10.71875 C 34.65625 -8.632812 36.003906 -7.015625 37.015625 -5.859375 C 38.035156 -4.703125 38.878906 -3.8125 39.546875 -3.1875 C 41.296875 -1.53125 43.304688 -0.703125 45.578125 -0.703125 L 45.578125 0 L 43.375 0 C 39.632812 0 36.703125 -0.734375 34.578125 -2.203125 C 32.960938 -3.285156 31.492188 -4.632812 30.171875 -6.25 C 29.890625 -6.625 28.695312 -8.289062 26.59375 -11.25 C 24.488281 -14.207031 23.363281 -15.78125 23.21875 -15.96875 C 20.664062 -19.144531 18.273438 -20.734375 16.046875 -20.734375 L 16.046875 -21.4375 C 21.585938 -21.4375 24.925781 -21.722656 26.0625 -22.296875 C 27.625 -23.097656 28.6875 -23.945312 29.25 -24.84375 C 30.4375 -26.738281 31.03125 -28.820312 31.03125 -31.09375 C 31.03125 -33.976562 30.175781 -36.203125 28.46875 -37.765625 C 26.769531 -39.328125 24.472656 -40.179688 21.578125 -40.328125 C 20.304688 -40.378906 18.84375 -40.40625 17.1875 -40.40625 Z M 17.1875 -40.40625 "/></g></g></g><path stroke-linecap="butt" transform="matrix(0.75, 0, 0, 0.75, 722.757162, 441.716302)" fill="none" stroke-linejoin="miter" d="M 0.000867518 1.998056 L 817.21445 1.998056 " stroke="#000000" stroke-width="4" stroke-opacity="1" stroke-miterlimit="4"/></svg>