<svg xmlns="http://www.w3.org/2000/svg" xmlns:xlink="http://www.w3.org/1999/xlink" width="1920" zoomAndPan="magnify" viewBox="0 0 1440 809.999993" height="1080" preserveAspectRatio="xMidYMid meet" version="1.0"><defs><g/><clipPath id="2b28bd6158"><path d="M 217 244.535156 L 300 244.535156 L 300 379 L 217 379 Z M 217 244.535156 " clip-rule="nonzero"/></clipPath><clipPath id="dbcda3bd16"><path d="M 13.527344 495 L 257 495 L 257 531 L 13.527344 531 Z M 13.527344 495 " clip-rule="nonzero"/></clipPath><clipPath id="4fa339ad22"><path d="M 260 495 L 503.277344 495 L 503.277344 531 L 260 531 Z M 260 495 " clip-rule="nonzero"/></clipPath></defs><path fill="#e7e0d1" d="M 249.558594 480.808594 C 249.558594 480.808594 94.519531 564.496094 64.128906 375.101562 C 64.128906 375.101562 78.222656 386.554688 109.054688 383.910156 C 139.886719 381.265625 226.214844 395.804688 249.558594 480.808594 Z M 249.558594 480.808594 " fill-opacity="1" fill-rule="nonzero"/><path fill="#e7e0d1" d="M 252.15625 458.898438 C 252.15625 458.898438 277.261719 353.851562 182.125 305.621094 C 182.125 305.621094 155.035156 296.371094 148.761719 286.460938 C 148.761719 286.460938 137.859375 353.191406 152.394531 378.292969 C 152.394531 378.292969 224.890625 387.007812 251.980469 460.011719 Z M 252.15625 458.898438 " fill-opacity="1" fill-rule="nonzero"/><path fill="#e7e0d1" d="M 267.929688 481.691406 C 267.929688 481.691406 422.964844 565.378906 453.359375 375.984375 C 453.359375 375.984375 439.265625 387.4375 408.429688 384.792969 C 377.597656 382.148438 291.269531 396.683594 267.929688 481.691406 Z M 267.929688 481.691406 " fill-opacity="1" fill-rule="nonzero"/><path fill="#e7e0d1" d="M 265.503906 460.011719 C 292.59375 387.007812 365.089844 378.292969 365.089844 378.292969 C 379.621094 353.191406 368.722656 286.460938 368.722656 286.460938 C 362.445312 296.371094 335.359375 305.621094 335.359375 305.621094 C 240.21875 353.851562 265.324219 458.898438 265.324219 458.898438 Z M 265.503906 460.011719 " fill-opacity="1" fill-rule="nonzero"/><g clip-path="url(#2b28bd6158)"><path fill="#e7e0d1" d="M 217.21875 316.523438 C 217.21875 316.523438 249.613281 339.945312 258.183594 378.296875 C 258.183594 378.296875 271.066406 337.769531 299.804688 316.523438 C 299.804688 316.523438 281.746094 265.863281 257.300781 244.621094 C 257.300781 244.621094 228.890625 279.15625 217.21875 316.523438 Z M 217.21875 316.523438 " fill-opacity="1" fill-rule="nonzero"/></g><g clip-path="url(#dbcda3bd16)"><path fill="#e7e0d1" d="M 13.539062 527.375 C 13.539062 527.375 53.617188 503.554688 121.105469 508.910156 C 188.589844 514.265625 231.390625 516.714844 256.519531 495.265625 C 256.519531 495.265625 227.097656 534.261719 175.730469 530.644531 C 124.363281 527.03125 94.320312 505.789062 13.539062 527.375 Z M 13.539062 527.375 " fill-opacity="1" fill-rule="nonzero"/></g><g clip-path="url(#4fa339ad22)"><path fill="#e7e0d1" d="M 503.488281 527.375 C 503.488281 527.375 463.40625 503.554688 395.921875 508.910156 C 328.4375 514.265625 285.636719 516.714844 260.507812 495.265625 C 260.507812 495.265625 289.929688 534.261719 341.296875 530.644531 C 392.664062 527.03125 422.703125 505.789062 503.488281 527.375 Z M 503.488281 527.375 " fill-opacity="1" fill-rule="nonzero"/></g><g fill="#e3ae5b" fill-opacity="1"><g transform="translate(503.498069, 417.662398)"><g><path d="M 179.546875 34.015625 C 166.035156 40.828125 152.34375 41.941406 138.46875 37.359375 C 123.71875 32.648438 111.015625 22.613281 100.359375 7.25 C 94.660156 -0.925781 89.769531 -10.40625 85.6875 -21.1875 L 79.734375 -36.984375 L 35.875 -36.984375 L 26.015625 -13.5625 C 25.398438 -11.957031 25.09375 -10.65625 25.09375 -9.65625 C 25.09375 -8.664062 25.304688 -7.582031 25.734375 -6.40625 C 26.171875 -5.226562 27.101562 -4.175781 28.53125 -3.25 C 29.957031 -2.320312 31.535156 -1.859375 33.265625 -1.859375 L 34.75 -1.859375 L 34.75 0 L -5.015625 0 L -5.015625 -1.859375 L -3.34375 -1.859375 C -0.488281 -1.859375 2.328125 -2.691406 5.109375 -4.359375 C 7.898438 -6.035156 10.222656 -8.546875 12.078125 -11.890625 L 53.53125 -106.5 C 48.695312 -117.40625 43.554688 -124.898438 38.109375 -128.984375 C 33.515625 -132.453125 29.144531 -134.1875 25 -134.1875 C 20.851562 -134.1875 16.984375 -133.566406 13.390625 -132.328125 L 13.015625 -134.1875 C 21.929688 -138.769531 30.476562 -141.0625 38.65625 -141.0625 C 48.820312 -141.0625 57.929688 -137.097656 65.984375 -129.171875 C 73.910156 -121.367188 80.910156 -110.09375 86.984375 -95.34375 L 113.9375 -28.8125 C 124.09375 -3.65625 134.5 13.628906 145.15625 23.046875 C 149.488281 26.890625 153.945312 29.550781 158.53125 31.03125 C 163.125 32.519531 167 33.265625 170.15625 33.265625 C 173.3125 33.265625 176.378906 32.894531 179.359375 32.15625 Z M 39.03125 -44.984375 L 76.953125 -44.984375 L 63.9375 -79.359375 C 63.320312 -81.097656 62.453125 -83.484375 61.328125 -86.515625 C 60.210938 -89.554688 59.472656 -91.695312 59.109375 -92.9375 Z M 39.03125 -44.984375 "/></g></g></g><g fill="#e3ae5b" fill-opacity="1"><g transform="translate(634.52354, 417.662398)"><g><path d="M 140.703125 -128.25 L 139.03125 -128.25 C 136.175781 -128.25 133.320312 -127.378906 130.46875 -125.640625 C 127.625 -123.898438 125.269531 -121.296875 123.40625 -117.828125 L 79.359375 -20.625 C 73.660156 -8.363281 70.625 -0.25 70.25 3.71875 L 68.578125 3.71875 L 12.265625 -117.65625 C 10.410156 -121.125 8.054688 -123.753906 5.203125 -125.546875 C 2.359375 -127.347656 -0.550781 -128.25 -3.53125 -128.25 L -5.015625 -128.25 L -5.015625 -130.109375 L 54.09375 -130.109375 L 54.09375 -128.25 L 52.59375 -128.25 C 49.875 -128.25 47.863281 -127.410156 46.5625 -125.734375 C 45.257812 -124.054688 44.609375 -122.472656 44.609375 -120.984375 C 44.609375 -119.503906 44.851562 -118.019531 45.34375 -116.53125 L 76.953125 -39.78125 L 109.65625 -116.53125 C 110.28125 -118.144531 110.59375 -119.660156 110.59375 -121.078125 C 110.59375 -122.503906 109.941406 -124.054688 108.640625 -125.734375 C 107.335938 -127.410156 105.320312 -128.25 102.59375 -128.25 L 100.921875 -128.25 L 100.921875 -130.109375 L 140.703125 -130.109375 Z M 140.703125 -128.25 "/></g></g></g><g fill="#e3ae5b" fill-opacity="1"><g transform="translate(769.63775, 417.662398)"><g><path d="M 10.21875 -1.859375 C 13.4375 -1.859375 16.191406 -3.003906 18.484375 -5.296875 C 20.785156 -7.585938 22 -10.34375 22.125 -13.5625 L 22.125 -116.71875 C 22 -119.9375 20.785156 -122.660156 18.484375 -124.890625 C 16.191406 -127.128906 13.4375 -128.25 10.21875 -128.25 L 7.8125 -128.25 L 7.8125 -130.109375 L 64.3125 -130.109375 L 64.125 -128.25 L 61.890625 -128.25 C 58.671875 -128.25 55.882812 -127.128906 53.53125 -124.890625 C 51.175781 -122.660156 50 -119.9375 50 -116.71875 L 50 -13.5625 C 50 -10.34375 51.175781 -7.585938 53.53125 -5.296875 C 55.882812 -3.003906 58.671875 -1.859375 61.890625 -1.859375 L 64.125 -1.859375 L 64.3125 0 L 7.8125 0 L 7.8125 -1.859375 Z M 10.21875 -1.859375 "/></g></g></g><g fill="#e3ae5b" fill-opacity="1"><g transform="translate(841.376524, 417.662398)"><g><path d="M 151.84375 -128.25 C 148.75 -128.25 146.085938 -127.160156 143.859375 -124.984375 C 141.628906 -122.816406 140.453125 -120.1875 140.328125 -117.09375 L 140.328125 -21.1875 C 140.328125 -12.882812 140.882812 -5.882812 142 -0.1875 L 142.546875 2.609375 L 140.875 2.609375 L 47.015625 -86.796875 L 47.015625 -13.015625 C 47.015625 -9.910156 48.128906 -7.273438 50.359375 -5.109375 C 52.597656 -2.941406 55.265625 -1.859375 58.359375 -1.859375 L 61.890625 -1.859375 L 61.890625 0 L 5.578125 0 L 5.578125 -1.859375 L 8.921875 -1.859375 C 12.140625 -1.859375 14.863281 -2.941406 17.09375 -5.109375 C 19.320312 -7.273438 20.4375 -9.972656 20.4375 -13.203125 L 20.4375 -109.65625 C 20.4375 -117.832031 19.878906 -124.648438 18.765625 -130.109375 L 18.40625 -132.890625 L 20.078125 -132.890625 L 113.9375 -43.484375 L 113.9375 -116.90625 C 113.8125 -120.125 112.632812 -122.816406 110.40625 -124.984375 C 108.175781 -127.160156 105.507812 -128.25 102.40625 -128.25 L 99.0625 -128.25 L 99.0625 -130.109375 L 155.375 -130.109375 L 155.375 -128.25 Z M 151.84375 -128.25 "/></g></g></g><g fill="#e3ae5b" fill-opacity="1"><g transform="translate(1002.138271, 417.662398)"><g><path d="M 151.84375 -128.25 C 148.75 -128.25 146.085938 -127.160156 143.859375 -124.984375 C 141.628906 -122.816406 140.453125 -120.1875 140.328125 -117.09375 L 140.328125 -21.1875 C 140.328125 -12.882812 140.882812 -5.882812 142 -0.1875 L 142.546875 2.609375 L 140.875 2.609375 L 47.015625 -86.796875 L 47.015625 -13.015625 C 47.015625 -9.910156 48.128906 -7.273438 50.359375 -5.109375 C 52.597656 -2.941406 55.265625 -1.859375 58.359375 -1.859375 L 61.890625 -1.859375 L 61.890625 0 L 5.578125 0 L 5.578125 -1.859375 L 8.921875 -1.859375 C 12.140625 -1.859375 14.863281 -2.941406 17.09375 -5.109375 C 19.320312 -7.273438 20.4375 -9.972656 20.4375 -13.203125 L 20.4375 -109.65625 C 20.4375 -117.832031 19.878906 -124.648438 18.765625 -130.109375 L 18.40625 -132.890625 L 20.078125 -132.890625 L 113.9375 -43.484375 L 113.9375 -116.90625 C 113.8125 -120.125 112.632812 -122.816406 110.40625 -124.984375 C 108.175781 -127.160156 105.507812 -128.25 102.40625 -128.25 L 99.0625 -128.25 L 99.0625 -130.109375 L 155.375 -130.109375 L 155.375 -128.25 Z M 151.84375 -128.25 "/></g></g></g><g fill="#e3ae5b" fill-opacity="1"><g transform="translate(1162.900018, 417.662398)"><g><path d="M 136.609375 -128.25 L 134 -128.25 C 130.289062 -128.25 126.757812 -127.191406 123.40625 -125.078125 C 120.0625 -122.972656 117.398438 -120.4375 115.421875 -117.46875 L 78.8125 -59.109375 L 78.8125 -13.5625 C 78.8125 -10.34375 79.988281 -7.585938 82.34375 -5.296875 C 84.695312 -3.003906 87.484375 -1.859375 90.703125 -1.859375 L 92.9375 -1.859375 L 93.125 0 L 36.609375 0 L 36.609375 -1.859375 L 39.03125 -1.859375 C 42.25 -1.859375 45.003906 -2.972656 47.296875 -5.203125 C 49.585938 -7.429688 50.796875 -10.15625 50.921875 -13.375 L 50.921875 -59.296875 L 15.421875 -117.65625 C 13.566406 -120.625 10.9375 -123.128906 7.53125 -125.171875 C 4.125 -127.222656 0.625 -128.25 -2.96875 -128.25 L -5.578125 -128.25 L -5.578125 -130.109375 L 55.953125 -130.109375 L 55.953125 -128.25 L 53.53125 -128.25 C 50.800781 -128.25 48.691406 -127.007812 47.203125 -124.53125 C 46.460938 -123.164062 46.09375 -121.832031 46.09375 -120.53125 C 46.09375 -119.226562 46.40625 -117.957031 47.03125 -116.71875 L 73.609375 -68.390625 L 101.109375 -116.71875 C 101.847656 -117.957031 102.21875 -119.226562 102.21875 -120.53125 C 102.21875 -121.832031 101.785156 -123.101562 100.921875 -124.34375 C 99.429688 -126.945312 97.328125 -128.25 94.609375 -128.25 L 92.375 -128.25 L 92.375 -130.109375 L 136.609375 -130.109375 Z M 136.609375 -128.25 "/></g></g></g><g fill="#e3ae5b" fill-opacity="1"><g transform="translate(1293.367917, 417.662398)"><g><path d="M 137.171875 -1.859375 L 138.84375 -1.859375 L 138.84375 0 L 79.546875 0 L 79.546875 -1.859375 L 81.21875 -1.859375 C 83.945312 -1.859375 85.960938 -2.691406 87.265625 -4.359375 C 88.566406 -6.035156 89.21875 -7.617188 89.21875 -9.109375 C 89.21875 -10.597656 88.90625 -12.082031 88.28125 -13.5625 L 79.171875 -36.421875 L 35.6875 -36.421875 L 26.015625 -13.5625 C 25.398438 -11.957031 25.09375 -10.441406 25.09375 -9.015625 C 25.09375 -7.585938 25.742188 -6.035156 27.046875 -4.359375 C 28.347656 -2.691406 30.421875 -1.859375 33.265625 -1.859375 L 34.75 -1.859375 L 34.75 0 L -5.015625 0 L -5.015625 -1.859375 L -3.34375 -1.859375 C -0.488281 -1.859375 2.359375 -2.722656 5.203125 -4.453125 C 8.054688 -6.191406 10.410156 -8.796875 12.265625 -12.265625 L 55.203125 -109.46875 C 61.023438 -121.738281 64.125 -129.851562 64.5 -133.8125 L 66.171875 -133.8125 L 121.375 -12.640625 C 123.226562 -9.046875 125.578125 -6.347656 128.421875 -4.546875 C 131.273438 -2.753906 134.191406 -1.859375 137.171875 -1.859375 Z M 38.84375 -44.234375 L 76.015625 -44.234375 L 57.984375 -89.953125 Z M 38.84375 -44.234375 "/></g></g></g><g fill="#000000" fill-opacity="1"><g transform="translate(867.406019, 538.013628)"><g><path d="M 22.078125 0.890625 C 18.265625 0.890625 14.941406 0.195312 12.109375 -1.1875 C 9.285156 -2.570312 7.101562 -4.503906 5.5625 -6.984375 C 4.03125 -9.460938 3.265625 -12.335938 3.265625 -15.609375 L 9.8125 -15.609375 C 9.8125 -13.578125 10.28125 -11.707031 11.21875 -10 C 12.164062 -8.289062 13.539062 -6.925781 15.34375 -5.90625 C 17.15625 -4.894531 19.398438 -4.390625 22.078125 -4.390625 C 25.597656 -4.390625 28.320312 -5.226562 30.25 -6.90625 C 32.1875 -8.59375 33.15625 -10.703125 33.15625 -13.234375 C 33.15625 -15.316406 32.707031 -16.988281 31.8125 -18.25 C 30.925781 -19.507812 29.726562 -20.535156 28.21875 -21.328125 C 26.707031 -22.128906 24.972656 -22.828125 23.015625 -23.421875 C 21.054688 -24.015625 19.007812 -24.679688 16.875 -25.421875 C 12.863281 -26.804688 9.890625 -28.523438 7.953125 -30.578125 C 6.023438 -32.640625 5.0625 -35.332031 5.0625 -38.65625 C 5.007812 -41.4375 5.648438 -43.90625 6.984375 -46.0625 C 8.328125 -48.21875 10.222656 -49.898438 12.671875 -51.109375 C 15.128906 -52.328125 18.039062 -52.9375 21.40625 -52.9375 C 24.726562 -52.9375 27.613281 -52.316406 30.0625 -51.078125 C 32.519531 -49.835938 34.429688 -48.125 35.796875 -45.9375 C 37.160156 -43.757812 37.867188 -41.285156 37.921875 -38.515625 L 31.375 -38.515625 C 31.375 -39.953125 31 -41.375 30.25 -42.78125 C 29.507812 -44.195312 28.382812 -45.347656 26.875 -46.234375 C 25.363281 -47.128906 23.46875 -47.578125 21.1875 -47.578125 C 18.363281 -47.628906 16.046875 -46.910156 14.234375 -45.421875 C 12.421875 -43.929688 11.515625 -41.875 11.515625 -39.25 C 11.515625 -37.019531 12.144531 -35.3125 13.40625 -34.125 C 14.675781 -32.9375 16.453125 -31.957031 18.734375 -31.1875 C 21.015625 -30.414062 23.640625 -29.535156 26.609375 -28.546875 C 29.085938 -27.648438 31.316406 -26.609375 33.296875 -25.421875 C 35.285156 -24.234375 36.835938 -22.695312 37.953125 -20.8125 C 39.066406 -18.925781 39.625 -16.523438 39.625 -13.609375 C 39.625 -11.128906 38.976562 -8.785156 37.6875 -6.578125 C 36.40625 -4.367188 34.460938 -2.570312 31.859375 -1.1875 C 29.253906 0.195312 25.992188 0.890625 22.078125 0.890625 Z M 22.078125 0.890625 "/></g></g></g><g fill="#000000" fill-opacity="1"><g transform="translate(910.368911, 538.013628)"><g><path d="M 5.125 0 L 5.125 -53.53125 L 11.375 -53.53125 L 11.375 -21.34375 L 26.46875 -36.875 L 34.125 -36.875 L 17.765625 -20.21875 L 36.203125 0 L 28.25 0 L 11.375 -19.109375 L 11.375 0 Z M 5.125 0 "/></g></g></g><g fill="#000000" fill-opacity="1"><g transform="translate(947.831348, 538.013628)"><g><path d="M 8.921875 -45.046875 C 7.679688 -45.046875 6.648438 -45.453125 5.828125 -46.265625 C 5.015625 -47.085938 4.609375 -48.117188 4.609375 -49.359375 C 4.609375 -50.554688 5.015625 -51.550781 5.828125 -52.34375 C 6.648438 -53.132812 7.679688 -53.53125 8.921875 -53.53125 C 10.109375 -53.53125 11.125 -53.132812 11.96875 -52.34375 C 12.8125 -51.550781 13.234375 -50.554688 13.234375 -49.359375 C 13.234375 -48.117188 12.8125 -47.085938 11.96875 -46.265625 C 11.125 -45.453125 10.109375 -45.046875 8.921875 -45.046875 Z M 5.796875 0 L 5.796875 -36.875 L 12.046875 -36.875 L 12.046875 0 Z M 5.796875 0 "/></g></g></g><g fill="#000000" fill-opacity="1"><g transform="translate(965.596272, 538.013628)"><g><path d="M 5.125 0 L 5.125 -36.875 L 10.78125 -36.875 L 11.15625 -30.265625 C 12.34375 -32.585938 14.050781 -34.414062 16.28125 -35.75 C 18.507812 -37.09375 21.035156 -37.765625 23.859375 -37.765625 C 28.222656 -37.765625 31.707031 -36.4375 34.3125 -33.78125 C 36.914062 -31.132812 38.21875 -27.0625 38.21875 -21.5625 L 38.21875 0 L 31.96875 0 L 31.96875 -20.890625 C 31.96875 -28.566406 28.796875 -32.40625 22.453125 -32.40625 C 19.273438 -32.40625 16.632812 -31.253906 14.53125 -28.953125 C 12.425781 -26.648438 11.375 -23.367188 11.375 -19.109375 L 11.375 0 Z M 5.125 0 "/></g></g></g><g fill="#000000" fill-opacity="1"><g transform="translate(1008.113161, 538.013628)"><g/></g></g><g fill="#000000" fill-opacity="1"><g transform="translate(1027.810675, 538.013628)"><g><path d="M 28.328125 0.890625 C 23.222656 0.890625 18.820312 -0.234375 15.125 -2.484375 C 11.4375 -4.742188 8.578125 -7.890625 6.546875 -11.921875 C 4.515625 -15.960938 3.5 -20.660156 3.5 -26.015625 C 3.5 -31.316406 4.515625 -35.988281 6.546875 -40.03125 C 8.578125 -44.070312 11.4375 -47.234375 15.125 -49.515625 C 18.820312 -51.796875 23.222656 -52.9375 28.328125 -52.9375 C 34.273438 -52.9375 39.117188 -51.507812 42.859375 -48.65625 C 46.597656 -45.8125 48.988281 -41.832031 50.03125 -36.71875 L 43.125 -36.71875 C 42.332031 -39.945312 40.707031 -42.539062 38.25 -44.5 C 35.789062 -46.457031 32.484375 -47.4375 28.328125 -47.4375 C 24.609375 -47.4375 21.359375 -46.578125 18.578125 -44.859375 C 15.804688 -43.148438 13.664062 -40.695312 12.15625 -37.5 C 10.644531 -34.3125 9.890625 -30.484375 9.890625 -26.015625 C 9.890625 -21.554688 10.644531 -17.726562 12.15625 -14.53125 C 13.664062 -11.332031 15.804688 -8.878906 18.578125 -7.171875 C 21.359375 -5.460938 24.609375 -4.609375 28.328125 -4.609375 C 32.484375 -4.609375 35.789062 -5.5625 38.25 -7.46875 C 40.707031 -9.375 42.332031 -11.914062 43.125 -15.09375 L 50.03125 -15.09375 C 48.988281 -10.082031 46.597656 -6.164062 42.859375 -3.34375 C 39.117188 -0.519531 34.273438 0.890625 28.328125 0.890625 Z M 28.328125 0.890625 "/></g></g></g><g fill="#000000" fill-opacity="1"><g transform="translate(1081.32842, 538.013628)"><g><path d="M 5.125 0 L 5.125 -53.53125 L 11.375 -53.53125 L 11.375 0 Z M 5.125 0 "/></g></g></g><g fill="#000000" fill-opacity="1"><g transform="translate(1097.82973, 538.013628)"><g><path d="M 8.921875 -45.046875 C 7.679688 -45.046875 6.648438 -45.453125 5.828125 -46.265625 C 5.015625 -47.085938 4.609375 -48.117188 4.609375 -49.359375 C 4.609375 -50.554688 5.015625 -51.550781 5.828125 -52.34375 C 6.648438 -53.132812 7.679688 -53.53125 8.921875 -53.53125 C 10.109375 -53.53125 11.125 -53.132812 11.96875 -52.34375 C 12.8125 -51.550781 13.234375 -50.554688 13.234375 -49.359375 C 13.234375 -48.117188 12.8125 -47.085938 11.96875 -46.265625 C 11.125 -45.453125 10.109375 -45.046875 8.921875 -45.046875 Z M 5.796875 0 L 5.796875 -36.875 L 12.046875 -36.875 L 12.046875 0 Z M 5.796875 0 "/></g></g></g><g fill="#000000" fill-opacity="1"><g transform="translate(1115.594654, 538.013628)"><g><path d="M 5.125 0 L 5.125 -36.875 L 10.78125 -36.875 L 11.15625 -30.265625 C 12.34375 -32.585938 14.050781 -34.414062 16.28125 -35.75 C 18.507812 -37.09375 21.035156 -37.765625 23.859375 -37.765625 C 28.222656 -37.765625 31.707031 -36.4375 34.3125 -33.78125 C 36.914062 -31.132812 38.21875 -27.0625 38.21875 -21.5625 L 38.21875 0 L 31.96875 0 L 31.96875 -20.890625 C 31.96875 -28.566406 28.796875 -32.40625 22.453125 -32.40625 C 19.273438 -32.40625 16.632812 -31.253906 14.53125 -28.953125 C 12.425781 -26.648438 11.375 -23.367188 11.375 -19.109375 L 11.375 0 Z M 5.125 0 "/></g></g></g><g fill="#000000" fill-opacity="1"><g transform="translate(1158.111543, 538.013628)"><g><path d="M 8.921875 -45.046875 C 7.679688 -45.046875 6.648438 -45.453125 5.828125 -46.265625 C 5.015625 -47.085938 4.609375 -48.117188 4.609375 -49.359375 C 4.609375 -50.554688 5.015625 -51.550781 5.828125 -52.34375 C 6.648438 -53.132812 7.679688 -53.53125 8.921875 -53.53125 C 10.109375 -53.53125 11.125 -53.132812 11.96875 -52.34375 C 12.8125 -51.550781 13.234375 -50.554688 13.234375 -49.359375 C 13.234375 -48.117188 12.8125 -47.085938 11.96875 -46.265625 C 11.125 -45.453125 10.109375 -45.046875 8.921875 -45.046875 Z M 5.796875 0 L 5.796875 -36.875 L 12.046875 -36.875 L 12.046875 0 Z M 5.796875 0 "/></g></g></g><g fill="#000000" fill-opacity="1"><g transform="translate(1175.876466, 538.013628)"><g><path d="M 22.078125 0.890625 C 18.554688 0.890625 15.394531 0.0859375 12.59375 -1.515625 C 9.800781 -3.128906 7.597656 -5.382812 5.984375 -8.28125 C 4.367188 -11.1875 3.5625 -14.570312 3.5625 -18.4375 C 3.5625 -22.300781 4.367188 -25.679688 5.984375 -28.578125 C 7.597656 -31.484375 9.800781 -33.738281 12.59375 -35.34375 C 15.394531 -36.957031 18.554688 -37.765625 22.078125 -37.765625 C 26.441406 -37.765625 30.125 -36.625 33.125 -34.34375 C 36.125 -32.0625 38.019531 -29.015625 38.8125 -25.203125 L 32.40625 -25.203125 C 31.914062 -27.484375 30.703125 -29.253906 28.765625 -30.515625 C 26.835938 -31.773438 24.582031 -32.40625 22 -32.40625 C 19.925781 -32.40625 17.96875 -31.882812 16.125 -30.84375 C 14.289062 -29.8125 12.804688 -28.253906 11.671875 -26.171875 C 10.535156 -24.085938 9.96875 -21.507812 9.96875 -18.4375 C 9.96875 -15.363281 10.535156 -12.785156 11.671875 -10.703125 C 12.804688 -8.617188 14.289062 -7.046875 16.125 -5.984375 C 17.96875 -4.921875 19.925781 -4.390625 22 -4.390625 C 24.582031 -4.390625 26.835938 -5.019531 28.765625 -6.28125 C 30.703125 -7.539062 31.914062 -9.335938 32.40625 -11.671875 L 38.8125 -11.671875 C 38.0625 -7.953125 36.175781 -4.925781 33.15625 -2.59375 C 30.132812 -0.269531 26.441406 0.890625 22.078125 0.890625 Z M 22.078125 0.890625 "/></g></g></g><path stroke-linecap="butt" transform="matrix(0.75, 0, 0, 0.75, 722.757162, 441.716302)" fill="none" stroke-linejoin="miter" d="M 0.000867518 1.998056 L 817.21445 1.998056 " stroke="#000000" stroke-width="4" stroke-opacity="1" stroke-miterlimit="4"/></svg>