<svg xmlns="http://www.w3.org/2000/svg" xmlns:xlink="http://www.w3.org/1999/xlink" width="1920" zoomAndPan="magnify" viewBox="0 0 1440 809.999993" height="1080" preserveAspectRatio="xMidYMid meet" version="1.0"><defs><g/><clipPath id="553bf0d0d4"><path d="M 284 244.535156 L 368 244.535156 L 368 379 L 284 379 Z M 284 244.535156 " clip-rule="nonzero"/></clipPath><clipPath id="28e8599623"><path d="M 327 495 L 570.75 495 L 570.75 531 L 327 531 Z M 327 495 " clip-rule="nonzero"/></clipPath></defs><path fill="#ffcf86" d="M 317.03125 480.808594 C 317.03125 480.808594 161.992188 564.496094 131.601562 375.101562 C 131.601562 375.101562 145.695312 386.554688 176.527344 383.910156 C 207.363281 381.265625 293.6875 395.804688 317.03125 480.808594 Z M 317.03125 480.808594 " fill-opacity="1" fill-rule="nonzero"/><path fill="#ffcf86" d="M 319.632812 458.898438 C 319.632812 458.898438 344.738281 353.851562 249.597656 305.621094 C 249.597656 305.621094 222.511719 296.371094 216.234375 286.460938 C 216.234375 286.460938 205.335938 353.191406 219.867188 378.292969 C 219.867188 378.292969 292.363281 387.007812 319.453125 460.011719 Z M 319.632812 458.898438 " fill-opacity="1" fill-rule="nonzero"/><path fill="#ffcf86" d="M 335.402344 481.691406 C 335.402344 481.691406 490.441406 565.378906 520.832031 375.984375 C 520.832031 375.984375 506.738281 387.4375 475.90625 384.792969 C 445.070312 382.148438 358.746094 396.683594 335.402344 481.691406 Z M 335.402344 481.691406 " fill-opacity="1" fill-rule="nonzero"/><path fill="#ffcf86" d="M 332.980469 460.011719 C 360.066406 387.007812 432.5625 378.292969 432.5625 378.292969 C 447.097656 353.191406 436.195312 286.460938 436.195312 286.460938 C 429.917969 296.371094 402.832031 305.621094 402.832031 305.621094 C 307.691406 353.851562 332.800781 458.898438 332.800781 458.898438 Z M 332.980469 460.011719 " fill-opacity="1" fill-rule="nonzero"/><g clip-path="url(#553bf0d0d4)"><path fill="#ffcf86" d="M 284.695312 316.523438 C 284.695312 316.523438 317.089844 339.945312 325.65625 378.296875 C 325.65625 378.296875 338.539062 337.769531 367.277344 316.523438 C 367.277344 316.523438 349.21875 265.863281 324.777344 244.621094 C 324.777344 244.621094 296.367188 279.15625 284.695312 316.523438 Z M 284.695312 316.523438 " fill-opacity="1" fill-rule="nonzero"/></g><path fill="#ffcf86" d="M 81.011719 527.375 C 81.011719 527.375 121.09375 503.554688 188.578125 508.910156 C 256.0625 514.265625 298.863281 516.714844 323.992188 495.265625 C 323.992188 495.265625 294.574219 534.261719 243.207031 530.644531 C 191.835938 527.03125 161.796875 505.789062 81.011719 527.375 Z M 81.011719 527.375 " fill-opacity="1" fill-rule="nonzero"/><g clip-path="url(#28e8599623)"><path fill="#ffcf86" d="M 570.964844 527.375 C 570.964844 527.375 530.882812 503.554688 463.394531 508.910156 C 395.910156 514.265625 353.109375 516.714844 327.984375 495.265625 C 327.984375 495.265625 357.402344 534.261719 408.769531 530.644531 C 460.136719 527.03125 490.179688 505.789062 570.964844 527.375 Z M 570.964844 527.375 " fill-opacity="1" fill-rule="nonzero"/></g><g fill="#ffbc57" fill-opacity="1"><g transform="translate(542.984571, 417.453925)"><g><path d="M 137.171875 -1.859375 L 138.84375 -1.859375 L 138.84375 0 L 79.546875 0 L 79.546875 -1.859375 L 81.21875 -1.859375 C 83.945312 -1.859375 85.960938 -2.691406 87.265625 -4.359375 C 88.566406 -6.035156 89.21875 -7.617188 89.21875 -9.109375 C 89.21875 -10.597656 88.90625 -12.082031 88.28125 -13.5625 L 79.171875 -36.421875 L 35.6875 -36.421875 L 26.015625 -13.5625 C 25.398438 -11.957031 25.09375 -10.441406 25.09375 -9.015625 C 25.09375 -7.585938 25.773438 -6.035156 27.140625 -4.359375 C 28.503906 -2.691406 30.546875 -1.859375 33.265625 -1.859375 L 34.75 -1.859375 L 34.75 0 L -5.015625 0 L -5.015625 -1.859375 L -3.34375 -1.859375 C -0.488281 -1.859375 2.359375 -2.722656 5.203125 -4.453125 C 8.054688 -6.191406 10.410156 -8.796875 12.265625 -12.265625 L 55.203125 -109.46875 C 61.023438 -121.738281 64.125 -129.851562 64.5 -133.8125 L 66.171875 -133.8125 L 121.375 -12.640625 C 123.226562 -9.046875 125.578125 -6.347656 128.421875 -4.546875 C 131.273438 -2.753906 134.191406 -1.859375 137.171875 -1.859375 Z M 38.84375 -44.234375 L 76.015625 -44.234375 L 57.984375 -89.953125 Z M 38.84375 -44.234375 "/></g></g></g><g fill="#ffbc57" fill-opacity="1"><g transform="translate(676.059884, 417.453925)"><g><path d="M 123.78125 -109.65625 L 122.296875 -109.65625 C 119.691406 -109.65625 117.085938 -108.878906 114.484375 -107.328125 C 111.890625 -105.785156 109.785156 -103.398438 108.171875 -100.171875 L 70.25 -20.265625 C 64.800781 -8.367188 61.953125 -0.804688 61.703125 2.421875 L 60.03125 2.421875 L 10.59375 -99.8125 C 7.25 -106.375 2.539062 -109.65625 -3.53125 -109.65625 L -4.828125 -109.65625 L -4.828125 -111.515625 L 49.625 -111.515625 L 49.625 -109.84375 L 48.140625 -109.84375 C 45.785156 -109.84375 44.019531 -109.066406 42.84375 -107.515625 C 41.664062 -105.972656 41.078125 -104.550781 41.078125 -103.25 C 41.078125 -101.945312 41.320312 -100.613281 41.8125 -99.25 L 67.84375 -38.84375 L 94.421875 -99.25 C 95.035156 -100.738281 95.34375 -102.101562 95.34375 -103.34375 C 95.34375 -104.582031 94.753906 -105.972656 93.578125 -107.515625 C 92.398438 -109.066406 90.632812 -109.84375 88.28125 -109.84375 L 86.796875 -109.84375 L 86.796875 -111.515625 L 123.78125 -111.515625 Z M 123.78125 -109.65625 "/></g></g></g><g fill="#ffbc57" fill-opacity="1"><g transform="translate(794.26644, 417.453925)"><g><path d="M 6.3125 -1.859375 L 8.546875 -1.859375 C 11.523438 -1.859375 14.066406 -2.816406 16.171875 -4.734375 C 18.273438 -6.660156 19.328125 -8.984375 19.328125 -11.703125 L 19.328125 -99.8125 C 19.328125 -102.53125 18.273438 -104.847656 16.171875 -106.765625 C 14.066406 -108.691406 11.523438 -109.65625 8.546875 -109.65625 L 6.3125 -109.65625 L 6.3125 -111.515625 L 59.109375 -111.515625 L 59.109375 -109.65625 L 56.875 -109.65625 C 54.019531 -109.65625 51.539062 -108.722656 49.4375 -106.859375 C 47.332031 -105.003906 46.21875 -102.71875 46.09375 -100 L 46.09375 -11.703125 C 46.21875 -8.859375 47.332031 -6.503906 49.4375 -4.640625 C 51.539062 -2.785156 54.019531 -1.859375 56.875 -1.859375 L 59.109375 -1.859375 L 59.109375 0 L 6.3125 0 Z M 6.3125 -1.859375 "/></g></g></g><g fill="#ffbc57" fill-opacity="1"><g transform="translate(859.688945, 417.453925)"><g><path d="M 88.84375 -111.515625 L 141.0625 -111.515625 L 141.0625 -109.65625 L 137.90625 -109.65625 C 135.0625 -109.65625 132.675781 -108.785156 130.75 -107.046875 C 128.832031 -105.316406 127.8125 -103.085938 127.6875 -100.359375 L 127.6875 -19.140625 C 127.6875 -11.460938 128.179688 -5.144531 129.171875 -0.1875 L 129.546875 2.421875 L 127.875 2.421875 L 42.5625 -72.859375 L 42.5625 -11.34375 C 42.6875 -8.613281 43.707031 -6.347656 45.625 -4.546875 C 47.550781 -2.753906 49.9375 -1.859375 52.78125 -1.859375 L 55.9375 -1.859375 L 55.9375 0 L 3.90625 0 L 3.90625 -1.859375 L 6.875 -1.859375 C 9.726562 -1.859375 12.144531 -2.753906 14.125 -4.546875 C 16.101562 -6.347656 17.09375 -8.613281 17.09375 -11.34375 L 17.09375 -93.109375 C 17.09375 -100.546875 16.597656 -106.679688 15.609375 -111.515625 L 15.234375 -114.125 L 16.90625 -113.9375 L 102.03125 -39.03125 L 102.03125 -100.171875 C 102.03125 -102.898438 101.070312 -105.160156 99.15625 -106.953125 C 97.238281 -108.753906 94.851562 -109.65625 92 -109.65625 L 88.84375 -109.65625 Z M 88.84375 -111.515625 "/></g></g></g><g fill="#ffbc57" fill-opacity="1"><g transform="translate(1004.473408, 417.453925)"><g><path d="M 88.84375 -111.515625 L 141.0625 -111.515625 L 141.0625 -109.65625 L 137.90625 -109.65625 C 135.0625 -109.65625 132.675781 -108.785156 130.75 -107.046875 C 128.832031 -105.316406 127.8125 -103.085938 127.6875 -100.359375 L 127.6875 -19.140625 C 127.6875 -11.460938 128.179688 -5.144531 129.171875 -0.1875 L 129.546875 2.421875 L 127.875 2.421875 L 42.5625 -72.859375 L 42.5625 -11.34375 C 42.6875 -8.613281 43.707031 -6.347656 45.625 -4.546875 C 47.550781 -2.753906 49.9375 -1.859375 52.78125 -1.859375 L 55.9375 -1.859375 L 55.9375 0 L 3.90625 0 L 3.90625 -1.859375 L 6.875 -1.859375 C 9.726562 -1.859375 12.144531 -2.753906 14.125 -4.546875 C 16.101562 -6.347656 17.09375 -8.613281 17.09375 -11.34375 L 17.09375 -93.109375 C 17.09375 -100.546875 16.597656 -106.679688 15.609375 -111.515625 L 15.234375 -114.125 L 16.90625 -113.9375 L 102.03125 -39.03125 L 102.03125 -100.171875 C 102.03125 -102.898438 101.070312 -105.160156 99.15625 -106.953125 C 97.238281 -108.753906 94.851562 -109.65625 92 -109.65625 L 88.84375 -109.65625 Z M 88.84375 -111.515625 "/></g></g></g><g fill="#ffbc57" fill-opacity="1"><g transform="translate(1149.25787, 417.453925)"><g><path d="M 124.53125 -109.65625 L 122.109375 -109.65625 C 118.890625 -109.65625 115.820312 -108.785156 112.90625 -107.046875 C 110 -105.316406 107.613281 -103.148438 105.75 -100.546875 L 72.671875 -49.625 L 72.671875 -11.703125 C 72.796875 -8.984375 73.847656 -6.660156 75.828125 -4.734375 C 77.816406 -2.816406 80.296875 -1.859375 83.265625 -1.859375 L 85.3125 -1.859375 L 85.3125 0 L 33.265625 0 L 33.265625 -1.859375 L 35.5 -1.859375 C 38.351562 -1.859375 40.769531 -2.816406 42.75 -4.734375 C 44.726562 -6.660156 45.78125 -8.984375 45.90625 -11.703125 L 45.90625 -49.625 L 13.015625 -100.546875 C 11.273438 -103.273438 8.945312 -105.472656 6.03125 -107.140625 C 3.125 -108.816406 0 -109.65625 -3.34375 -109.65625 L -5.578125 -109.65625 L -5.578125 -111.515625 L 50.921875 -111.515625 L 50.921875 -109.65625 L 48.875 -109.65625 C 46.519531 -109.65625 44.816406 -108.878906 43.765625 -107.328125 C 42.710938 -105.785156 42.1875 -104.484375 42.1875 -103.421875 C 42.1875 -102.367188 42.4375 -101.410156 42.9375 -100.546875 L 67.65625 -57.796875 L 92.75 -100.546875 C 93.113281 -101.410156 93.296875 -102.367188 93.296875 -103.421875 C 93.296875 -104.484375 92.769531 -105.785156 91.71875 -107.328125 C 90.664062 -108.878906 88.960938 -109.65625 86.609375 -109.65625 L 84.75 -109.65625 L 84.75 -111.515625 L 124.53125 -111.515625 Z M 124.53125 -109.65625 "/></g></g></g><g fill="#ffbc57" fill-opacity="1"><g transform="translate(1267.278586, 417.453925)"><g><path d="M 123.78125 -1.859375 L 125.265625 -1.859375 L 125.265625 0 L 70.625 0 L 70.625 -1.859375 L 72.109375 -1.859375 C 74.585938 -1.859375 76.382812 -2.597656 77.5 -4.078125 C 78.613281 -5.566406 79.171875 -6.929688 79.171875 -8.171875 C 79.171875 -9.410156 78.925781 -10.710938 78.4375 -12.078125 L 71.1875 -29.1875 L 31.78125 -29.1875 L 24.34375 -11.890625 C 23.851562 -10.648438 23.609375 -9.378906 23.609375 -8.078125 C 23.609375 -6.785156 24.195312 -5.425781 25.375 -4 C 26.550781 -2.570312 28.378906 -1.859375 30.859375 -1.859375 L 32.34375 -1.859375 L 32.34375 0 L -4.828125 0 L -4.828125 -1.859375 L -3.34375 -1.859375 C -0.738281 -1.859375 1.859375 -2.660156 4.453125 -4.265625 C 7.054688 -5.878906 9.164062 -8.296875 10.78125 -11.515625 L 49.25 -94.046875 C 54.707031 -106.304688 57.554688 -113.863281 57.796875 -116.71875 L 59.484375 -116.71875 L 109.28125 -12.265625 C 110.894531 -8.671875 113.03125 -6.035156 115.6875 -4.359375 C 118.351562 -2.691406 121.050781 -1.859375 123.78125 -1.859375 Z M 34.9375 -36.421875 L 68.03125 -36.421875 L 51.671875 -75.265625 Z M 34.9375 -36.421875 "/></g></g></g><g fill="#000000" fill-opacity="1"><g transform="translate(745.067321, 522.06201)"><g><path d="M 4.53125 -3.046875 C 4.382812 -3.742188 4.3125 -5.082031 4.3125 -7.0625 C 4.3125 -9.039062 4.679688 -11.144531 5.421875 -13.375 L 6.09375 -13.375 C 6.039062 -12.832031 6.015625 -12.289062 6.015625 -11.75 C 6.015625 -8.726562 6.929688 -6.210938 8.765625 -4.203125 C 10.597656 -2.191406 13.03125 -1.1875 16.0625 -1.1875 C 19.175781 -1.1875 21.738281 -2.128906 23.75 -4.015625 C 25.757812 -5.898438 26.765625 -8.265625 26.765625 -11.109375 C 26.765625 -13.960938 25.796875 -16.28125 23.859375 -18.0625 L 9.59375 -31.296875 C 6.914062 -33.773438 5.578125 -36.773438 5.578125 -40.296875 C 5.578125 -43.816406 6.753906 -46.828125 9.109375 -49.328125 C 11.460938 -51.828125 14.644531 -53.078125 18.65625 -53.078125 C 20.539062 -53.078125 22.671875 -52.832031 25.046875 -52.34375 L 27.953125 -52.34375 L 27.953125 -43.1875 L 27.28125 -43.1875 C 27.28125 -45.519531 26.472656 -47.378906 24.859375 -48.765625 C 23.253906 -50.148438 21.1875 -50.84375 18.65625 -50.84375 C 16.132812 -50.84375 14.015625 -50 12.296875 -48.3125 C 10.585938 -46.632812 9.734375 -44.53125 9.734375 -42 C 9.734375 -39.476562 10.726562 -37.300781 12.71875 -35.46875 L 27.359375 -21.9375 C 29.835938 -19.65625 31.078125 -16.53125 31.078125 -12.5625 C 31.078125 -8.59375 29.8125 -5.332031 27.28125 -2.78125 C 24.757812 -0.226562 21.390625 1.046875 17.171875 1.046875 C 14.992188 1.046875 12.675781 0.707031 10.21875 0.03125 C 7.769531 -0.632812 5.875 -1.660156 4.53125 -3.046875 Z M 4.53125 -3.046875 "/></g></g></g><g fill="#000000" fill-opacity="1"><g transform="translate(780.38057, 522.06201)"><g><path d="M 46.765625 0 L 44.015625 0 C 39.148438 0 35.503906 -1.410156 33.078125 -4.234375 L 16.734375 -22.15625 L 32.71875 -40.96875 C 33.257812 -41.65625 33.34375 -42.304688 32.96875 -42.921875 C 32.59375 -43.546875 31.960938 -43.859375 31.078125 -43.859375 L 30.40625 -43.859375 L 30.40625 -44.609375 L 45.578125 -44.609375 L 45.578125 -43.859375 L 45.28125 -43.859375 C 42.25 -43.859375 39.84375 -42.96875 38.0625 -41.1875 L 21.859375 -23.859375 L 40.296875 -3.796875 C 41.179688 -2.703125 42.09375 -1.929688 43.03125 -1.484375 C 43.976562 -1.035156 45.222656 -0.789062 46.765625 -0.75 Z M 18.515625 -0.75 L 19.328125 -0.75 L 19.328125 0 L 4.09375 0 L 4.09375 -0.75 L 4.984375 -0.75 C 6.171875 -0.75 7.1875 -1.144531 8.03125 -1.9375 C 8.875 -2.726562 9.320312 -3.671875 9.375 -4.765625 L 9.375 -39.84375 C 9.320312 -40.9375 8.875 -41.878906 8.03125 -42.671875 C 7.1875 -43.460938 6.171875 -43.859375 4.984375 -43.859375 L 4.09375 -43.859375 L 4.09375 -44.609375 L 19.328125 -44.609375 L 19.328125 -43.859375 L 18.4375 -43.859375 C 16.851562 -43.859375 15.613281 -43.21875 14.71875 -41.9375 C 14.320312 -41.332031 14.125 -40.660156 14.125 -39.921875 L 14.125 -4.6875 C 14.125 -3.59375 14.554688 -2.660156 15.421875 -1.890625 C 16.296875 -1.128906 17.328125 -0.75 18.515625 -0.75 Z M 18.515625 -0.75 "/></g></g></g><g fill="#000000" fill-opacity="1"><g transform="translate(826.771025, 522.06201)"><g><path d="M 5.125 -0.75 C 6.46875 -0.75 7.632812 -1.144531 8.625 -1.9375 C 9.613281 -2.726562 10.109375 -3.671875 10.109375 -4.765625 L 10.109375 -39.84375 C 10.109375 -40.9375 9.613281 -41.878906 8.625 -42.671875 C 7.632812 -43.460938 6.445312 -43.859375 5.0625 -43.859375 L 4.09375 -43.859375 L 4.09375 -44.609375 L 20.890625 -44.609375 L 20.890625 -43.859375 L 19.921875 -43.859375 C 18.585938 -43.859375 17.4375 -43.484375 16.46875 -42.734375 C 15.5 -41.992188 14.96875 -41.082031 14.875 -40 L 14.875 -4.6875 C 14.914062 -3.59375 15.429688 -2.660156 16.421875 -1.890625 C 17.421875 -1.128906 18.585938 -0.75 19.921875 -0.75 L 20.890625 -0.75 L 20.96875 0 L 4.09375 0 L 4.09375 -0.75 Z M 5.125 -0.75 "/></g></g></g><g fill="#000000" fill-opacity="1"><g transform="translate(851.750501, 522.06201)"><g><path d="M 54.046875 -43.859375 C 52.953125 -43.859375 52.007812 -43.5 51.21875 -42.78125 C 50.425781 -42.0625 50.003906 -41.179688 49.953125 -40.140625 L 49.953125 -8.46875 C 49.953125 -5.59375 50.128906 -2.867188 50.484375 -0.296875 L 50.625 1.046875 L 49.953125 1.046875 L 11.296875 -35.609375 L 11.296875 -4.609375 C 11.296875 -3.515625 11.691406 -2.597656 12.484375 -1.859375 C 13.273438 -1.117188 14.242188 -0.75 15.390625 -0.75 L 16.65625 -0.75 L 16.65625 0 L 2.609375 0 L 2.609375 -0.75 L 3.859375 -0.75 C 5.003906 -0.75 5.972656 -1.117188 6.765625 -1.859375 C 7.554688 -2.597656 7.953125 -3.515625 7.953125 -4.609375 L 7.953125 -36.421875 C 7.953125 -39.453125 7.78125 -42.15625 7.4375 -44.53125 L 7.28125 -45.71875 L 8.109375 -45.640625 L 46.6875 -9.296875 L 46.6875 -40.140625 C 46.59375 -41.179688 46.144531 -42.0625 45.34375 -42.78125 C 44.550781 -43.5 43.613281 -43.859375 42.53125 -43.859375 L 41.265625 -43.859375 L 41.265625 -44.609375 L 55.3125 -44.609375 L 55.3125 -43.859375 Z M 54.046875 -43.859375 "/></g></g></g><g fill="#000000" fill-opacity="1"><g transform="translate(909.664228, 522.06201)"><g/></g></g><g fill="#000000" fill-opacity="1"><g transform="translate(928.250153, 522.06201)"><g><path d="M 31 1.046875 C 23.164062 0.992188 16.78125 -1.507812 11.84375 -6.46875 C 6.914062 -11.425781 4.453125 -17.957031 4.453125 -26.0625 C 4.453125 -34.164062 6.914062 -40.691406 11.84375 -45.640625 C 16.78125 -50.597656 23.316406 -53.078125 31.453125 -53.078125 C 38.085938 -53.078125 43.957031 -51.394531 49.0625 -48.03125 L 50.546875 -37.546875 L 49.890625 -37.546875 C 48.796875 -41.804688 46.585938 -45.085938 43.265625 -47.390625 C 39.941406 -49.691406 36.003906 -50.84375 31.453125 -50.84375 C 24.953125 -50.84375 19.753906 -48.585938 15.859375 -44.078125 C 11.972656 -39.578125 10.03125 -33.609375 10.03125 -26.171875 C 10.03125 -18.734375 11.953125 -12.742188 15.796875 -8.203125 C 19.640625 -3.671875 24.707031 -1.332031 31 -1.1875 C 36.550781 -1.1875 41.1875 -2.695312 44.90625 -5.71875 C 48.914062 -8.988281 51.34375 -14.316406 52.1875 -21.703125 L 52.78125 -21.703125 L 51.890625 -10.03125 C 47.378906 -2.644531 40.414062 1.046875 31 1.046875 Z M 31 1.046875 "/></g></g></g><g fill="#000000" fill-opacity="1"><g transform="translate(984.75136, 522.06201)"><g><path d="M 5.125 -0.75 C 6.3125 -0.75 7.316406 -1.128906 8.140625 -1.890625 C 8.960938 -2.660156 9.394531 -3.59375 9.4375 -4.6875 L 9.4375 -39.84375 C 9.394531 -40.9375 8.9375 -41.878906 8.0625 -42.671875 C 7.195312 -43.460938 6.171875 -43.859375 4.984375 -43.859375 L 4.09375 -43.859375 L 4.09375 -44.609375 L 19.484375 -44.609375 L 19.484375 -43.859375 L 18.578125 -43.859375 C 17.390625 -43.859375 16.363281 -43.460938 15.5 -42.671875 C 14.632812 -41.878906 14.203125 -40.9375 14.203125 -39.84375 L 14.203125 -2.296875 L 25.796875 -2.296875 C 28.078125 -2.296875 30.007812 -2.691406 31.59375 -3.484375 C 33.175781 -4.285156 34.375 -5.226562 35.1875 -6.3125 C 36.007812 -7.40625 36.820312 -8.84375 37.625 -10.625 L 38.359375 -10.625 L 34.265625 0 L 4.09375 0 L 4.09375 -0.75 Z M 5.125 -0.75 "/></g></g></g><g fill="#000000" fill-opacity="1"><g transform="translate(1024.599571, 522.06201)"><g><path d="M 5.125 -0.75 C 6.46875 -0.75 7.632812 -1.144531 8.625 -1.9375 C 9.613281 -2.726562 10.109375 -3.671875 10.109375 -4.765625 L 10.109375 -39.84375 C 10.109375 -40.9375 9.613281 -41.878906 8.625 -42.671875 C 7.632812 -43.460938 6.445312 -43.859375 5.0625 -43.859375 L 4.09375 -43.859375 L 4.09375 -44.609375 L 20.890625 -44.609375 L 20.890625 -43.859375 L 19.921875 -43.859375 C 18.585938 -43.859375 17.4375 -43.484375 16.46875 -42.734375 C 15.5 -41.992188 14.96875 -41.082031 14.875 -40 L 14.875 -4.6875 C 14.914062 -3.59375 15.429688 -2.660156 16.421875 -1.890625 C 17.421875 -1.128906 18.585938 -0.75 19.921875 -0.75 L 20.890625 -0.75 L 20.96875 0 L 4.09375 0 L 4.09375 -0.75 Z M 5.125 -0.75 "/></g></g></g><g fill="#000000" fill-opacity="1"><g transform="translate(1049.579047, 522.06201)"><g><path d="M 54.046875 -43.859375 C 52.953125 -43.859375 52.007812 -43.5 51.21875 -42.78125 C 50.425781 -42.0625 50.003906 -41.179688 49.953125 -40.140625 L 49.953125 -8.46875 C 49.953125 -5.59375 50.128906 -2.867188 50.484375 -0.296875 L 50.625 1.046875 L 49.953125 1.046875 L 11.296875 -35.609375 L 11.296875 -4.609375 C 11.296875 -3.515625 11.691406 -2.597656 12.484375 -1.859375 C 13.273438 -1.117188 14.242188 -0.75 15.390625 -0.75 L 16.65625 -0.75 L 16.65625 0 L 2.609375 0 L 2.609375 -0.75 L 3.859375 -0.75 C 5.003906 -0.75 5.972656 -1.117188 6.765625 -1.859375 C 7.554688 -2.597656 7.953125 -3.515625 7.953125 -4.609375 L 7.953125 -36.421875 C 7.953125 -39.453125 7.78125 -42.15625 7.4375 -44.53125 L 7.28125 -45.71875 L 8.109375 -45.640625 L 46.6875 -9.296875 L 46.6875 -40.140625 C 46.59375 -41.179688 46.144531 -42.0625 45.34375 -42.78125 C 44.550781 -43.5 43.613281 -43.859375 42.53125 -43.859375 L 41.265625 -43.859375 L 41.265625 -44.609375 L 55.3125 -44.609375 L 55.3125 -43.859375 Z M 54.046875 -43.859375 "/></g></g></g><g fill="#000000" fill-opacity="1"><g transform="translate(1107.492763, 522.06201)"><g><path d="M 5.125 -0.75 C 6.46875 -0.75 7.632812 -1.144531 8.625 -1.9375 C 9.613281 -2.726562 10.109375 -3.671875 10.109375 -4.765625 L 10.109375 -39.84375 C 10.109375 -40.9375 9.613281 -41.878906 8.625 -42.671875 C 7.632812 -43.460938 6.445312 -43.859375 5.0625 -43.859375 L 4.09375 -43.859375 L 4.09375 -44.609375 L 20.890625 -44.609375 L 20.890625 -43.859375 L 19.921875 -43.859375 C 18.585938 -43.859375 17.4375 -43.484375 16.46875 -42.734375 C 15.5 -41.992188 14.96875 -41.082031 14.875 -40 L 14.875 -4.6875 C 14.914062 -3.59375 15.429688 -2.660156 16.421875 -1.890625 C 17.421875 -1.128906 18.585938 -0.75 19.921875 -0.75 L 20.890625 -0.75 L 20.96875 0 L 4.09375 0 L 4.09375 -0.75 Z M 5.125 -0.75 "/></g></g></g><g fill="#000000" fill-opacity="1"><g transform="translate(1132.472238, 522.06201)"><g><path d="M 28.25 1.046875 C 20.664062 0.992188 14.679688 -1.109375 10.296875 -5.265625 C 5.910156 -9.429688 3.71875 -15.117188 3.71875 -22.328125 C 3.71875 -29.546875 5.910156 -35.234375 10.296875 -39.390625 C 14.679688 -43.554688 20.664062 -45.640625 28.25 -45.640625 C 31.320312 -45.640625 34.421875 -45.242188 37.546875 -44.453125 C 40.671875 -43.660156 43.367188 -42.570312 45.640625 -41.1875 L 47.28125 -30.625 L 46.609375 -30.625 C 44.484375 -39.15625 38.335938 -43.421875 28.171875 -43.421875 C 22.273438 -43.421875 17.613281 -41.535156 14.1875 -37.765625 C 10.769531 -33.992188 9.0625 -28.835938 9.0625 -22.296875 C 9.0625 -18.035156 9.828125 -14.332031 11.359375 -11.1875 C 12.898438 -8.039062 15.132812 -5.597656 18.0625 -3.859375 C 20.988281 -2.128906 24.382812 -1.265625 28.25 -1.265625 C 32.113281 -1.265625 35.492188 -1.847656 38.390625 -3.015625 C 41.296875 -4.179688 43.703125 -6.097656 45.609375 -8.765625 C 47.515625 -11.441406 48.59375 -14.765625 48.84375 -18.734375 L 49.515625 -18.734375 L 48.6875 -8.546875 C 46.757812 -5.578125 43.960938 -3.234375 40.296875 -1.515625 C 36.628906 0.191406 32.613281 1.046875 28.25 1.046875 Z M 28.25 1.046875 "/></g></g></g><path stroke-linecap="butt" transform="matrix(0.75, 0, 0, 0.75, 722.757162, 441.716302)" fill="none" stroke-linejoin="miter" d="M 0.000867518 1.998056 L 817.21445 1.998056 " stroke="#000000" stroke-width="4" stroke-opacity="1" stroke-miterlimit="4"/></svg>